<?xml version="1.0" encoding="UTF-8" standalone="no"?>
<!-- Created with Inkscape (http://www.inkscape.org/) -->

<svg
   xmlns:dc="http://purl.org/dc/elements/1.1/"
   xmlns:cc="http://creativecommons.org/ns#"
   xmlns:rdf="http://www.w3.org/1999/02/22-rdf-syntax-ns#"
   xmlns:svg="http://www.w3.org/2000/svg"
   xmlns="http://www.w3.org/2000/svg"
   xmlns:sodipodi="http://sodipodi.sourceforge.net/DTD/sodipodi-0.dtd"
   xmlns:inkscape="http://www.inkscape.org/namespaces/inkscape"
   version="1.1"
   width="540"
   height="180"
   id="svg3378"
   inkscape:version="0.48.3.1 r9886"
   sodipodi:docname="QIICR_horizontal_path.svg">
  <sodipodi:namedview
     pagecolor="#ffffff"
     bordercolor="#666666"
     borderopacity="1"
     objecttolerance="10"
     gridtolerance="10"
     guidetolerance="10"
     inkscape:pageopacity="0"
     inkscape:pageshadow="2"
     inkscape:window-width="1855"
     inkscape:window-height="1056"
     id="namedview4098"
     showgrid="false"
     inkscape:zoom="0.6"
     inkscape:cx="270"
     inkscape:cy="90"
     inkscape:window-x="65"
     inkscape:window-y="24"
     inkscape:window-maximized="1"
     inkscape:current-layer="svg3378" />
  <defs
     id="defs3380" />
  <metadata
     id="metadata3383">
    <rdf:RDF>
      <cc:Work
         rdf:about="">
        <dc:format>image/svg+xml</dc:format>
        <dc:type
           rdf:resource="http://purl.org/dc/dcmitype/StillImage" />
        <dc:title></dc:title>
      </cc:Work>
    </rdf:RDF>
  </metadata>
  <g
     style="font-size:15px"
     id="text3119">
    <path
       d="m 160.7959,91.128662 c -1.4e-4,8.496136 -1.44057,15.869178 -4.32129,22.119138 -2.88099,6.25002 -6.83607,11.52346 -11.86524,15.82032 4.39441,1.36719 8.69128,2.61231 12.89063,3.73535 4.24791,1.12305 8.34946,2.02637 12.30469,2.70996 l -3.58887,9.15527 c -4.73647,-1.2207 -9.71693,-2.70996 -14.94141,-4.46777 -5.1759,-1.75781 -10.25402,-3.56445 -15.23437,-5.41992 -5.32238,2.92969 -11.30382,5.10254 -17.94434,6.51855 -6.59188,1.36719 -13.59871,2.05078 -21.020507,2.05078 -9.033268,0 -17.456111,-1.02539 -25.268554,-3.07617 -7.812541,-2.05078 -14.599644,-5.20019 -20.361328,-9.44824 -5.761742,-4.29686 -10.278339,-9.71678 -13.549805,-16.25977 -3.271496,-6.59176 -4.907237,-14.40425 -4.907227,-23.437498 -10e-6,-6.005803 0.756826,-11.450134 2.270508,-16.333008 1.513658,-4.931569 3.63768,-9.326096 6.37207,-13.183593 2.734354,-3.906167 6.030249,-7.275304 9.887696,-10.107422 3.906217,-2.831939 8.227502,-5.175687 12.963867,-7.03125 4.78511,-1.904198 9.912058,-3.295799 15.380859,-4.174805 5.468688,-0.927632 11.205987,-1.391499 17.211914,-1.391602 8.984297,1.03e-4 17.358307,1.025492 25.122067,3.076172 7.76357,2.050879 14.50184,5.224704 20.21485,9.521485 5.71276,4.248132 10.20495,9.668049 13.47656,16.259765 3.27135,6.543036 4.90709,14.331114 4.90723,23.364258 m -9.44825,0 c -1.2e-4,-7.128849 -1.172,-13.427671 -3.51562,-18.896484 -2.29504,-5.468676 -5.71301,-10.058515 -10.25391,-13.769532 -4.54112,-3.759678 -10.20518,-6.591707 -16.99218,-8.496093 -6.73838,-1.953032 -14.57528,-2.929593 -23.510747,-2.929688 -8.935612,9.5e-5 -16.821346,0.976656 -23.657226,2.929688 -6.787153,1.953214 -12.475624,4.809657 -17.06543,8.569336 -4.589872,3.711016 -8.056666,8.325269 -10.40039,13.842773 -2.343771,5.468814 -3.515645,11.718807 -3.515625,18.75 -2e-5,7.128949 1.171854,13.427768 3.515625,18.896488 2.343724,5.46877 5.810518,10.08303 10.40039,13.84277 4.589806,3.71095 10.278277,6.54298 17.06543,8.49609 6.83588,1.90431 14.721614,2.85646 23.657226,2.85645 11.230387,1e-5 20.727447,-1.48925 28.491207,-4.46777 -2.97861,-1.2207 -5.71298,-2.34374 -8.20312,-3.36915 -2.49033,-1.0742 -4.66318,-2.02635 -6.51856,-2.85644 -2.14852,-0.92772 -4.10164,-1.80662 -5.85937,-2.63672 l 3.58887,-7.39746 c 3.95499,2.00198 8.1542,3.9551 12.59765,5.85937 4.49209,1.90432 9.15517,3.71096 13.98926,5.41993 5.32215,-3.75975 9.35047,-8.52049 12.08496,-14.28223 2.73425,-5.81051 4.10144,-12.597614 4.10156,-20.361328"
       style="font-size:150px;font-variant:normal;font-weight:normal;writing-mode:lr-tb;fill:#003333;fill-opacity:1;fill-rule:nonzero;stroke:none;font-family:Syncopate;-inkscape-font-specification:Syncopate-Regular"
       id="path4176" />
    <path
       d="m 187.46953,141.3728 0,-100.634763 9.15527,0 0,100.634763 -9.15527,0"
       style="font-size:150px;font-variant:normal;font-weight:normal;writing-mode:lr-tb;fill:#003333;fill-opacity:1;fill-rule:nonzero;stroke:none;font-family:Syncopate;-inkscape-font-specification:Syncopate-Regular"
       id="path4178" />
    <path
       d="m 230.51952,141.3728 0,-100.634763 9.15527,0 0,100.634763 -9.15527,0"
       style="font-size:150px;font-variant:normal;font-weight:normal;writing-mode:lr-tb;fill:#003333;fill-opacity:1;fill-rule:nonzero;stroke:none;font-family:Syncopate;-inkscape-font-specification:Syncopate-Regular"
       id="path4180" />
  </g>
  <g
     style="font-size:15px"
     id="text3123">
    <path
       d="m 377.00684,133.3894 c -3.51575,1.46485 -7.00695,2.80763 -10.47364,4.02832 -3.41807,1.22071 -6.98252,2.27051 -10.69336,3.14942 -3.71103,0.8789 -7.61728,1.5625 -11.71875,2.05078 -4.10164,0.48828 -8.56941,0.73242 -13.40332,0.73242 -5.9571,0 -11.69439,-0.48828 -17.21191,-1.46484 -5.4688,-0.97656 -10.57134,-2.44141 -15.30762,-4.39453 -4.73636,-1.95312 -9.03323,-4.37011 -12.89062,-7.25098 -3.85745,-2.92967 -7.17776,-6.32322 -9.96094,-10.18066 -2.73439,-3.8574 -4.85841,-8.2031 -6.37207,-13.03711 -1.46485,-4.83395 -2.19728,-10.131795 -2.19727,-15.893558 -10e-6,-5.761663 0.73242,-11.059509 2.19727,-15.893555 1.51366,-4.833913 3.63768,-9.179612 6.37207,-13.037109 2.78318,-3.857339 6.10349,-7.226476 9.96094,-10.107422 3.85739,-2.929595 8.15426,-5.370999 12.89062,-7.324219 4.73628,-1.953026 9.83882,-3.417868 15.30762,-4.394531 5.46869,-0.97646 11.20599,-1.464741 17.21191,-1.464844 4.83391,1.03e-4 9.30168,0.244243 13.40332,0.732422 4.10147,0.488383 8.00772,1.171976 11.71875,2.050782 3.71084,0.879005 7.27529,1.928808 10.69336,3.149414 3.46669,1.17197 6.95789,2.490328 10.47364,3.955078 l 0,10.986328 c -2.78332,-1.757729 -5.76184,-3.417884 -8.93555,-4.980469 -3.17394,-1.562412 -6.61632,-2.929598 -10.32715,-4.101562 -3.66221,-1.171784 -7.59287,-2.099517 -11.79199,-2.783204 -4.19931,-0.683499 -8.69149,-1.025296 -13.47656,-1.02539 -9.66804,9.4e-5 -18.04205,1.049898 -25.12207,3.149414 -7.08013,2.099699 -12.9395,5.078211 -17.57813,8.935547 -4.58987,3.808672 -8.00784,8.447339 -10.25391,13.916015 -2.19728,5.419985 -3.29591,11.499081 -3.29589,18.237305 -2e-5,6.738325 1.09861,12.817418 3.29589,18.237308 2.24607,5.41995 5.66404,10.05861 10.25391,13.91601 4.63863,3.80861 10.498,6.76271 17.57813,8.86231 7.08002,2.05079 15.45403,3.07618 25.12207,3.07617 4.78507,1e-5 9.30167,-0.34179 13.5498,-1.02539 4.29678,-0.68359 8.30068,-1.61132 12.01172,-2.7832 3.75966,-1.17187 7.20204,-2.51464 10.32715,-4.02833 3.17371,-1.56248 6.05457,-3.19822 8.64258,-4.90722 l 0,10.91308 0,0"
       style="font-size:150px;font-variant:normal;font-weight:normal;writing-mode:lr-tb;fill:#cc0033;fill-opacity:1;fill-rule:nonzero;stroke:none;font-family:Syncopate;-inkscape-font-specification:Syncopate-Regular"
       id="path4173" />
  </g>
  <g
     style="font-size:15px"
     id="text3127">
    <path
       d="m 413.33496,98.306396 0,43.066404 -9.15527,0 0,-100.634763 50.09765,0 c 7.66594,1.01e-4 14.23332,0.610452 19.70215,1.831055 5.46866,1.171972 9.93643,2.978611 13.40332,5.419922 3.51552,2.392669 6.079,5.395595 7.69043,9.008789 1.61122,3.613362 2.41688,7.83699 2.41699,12.670898 -1.1e-4,7.519596 -1.97764,13.549863 -5.93261,18.09082 -3.95518,4.492237 -10.32725,7.568406 -19.11621,9.228516 l 34.35058,44.384763 -11.49902,0 -32.44629,-43.359372 c -1.36726,0.0977 -2.75886,0.170941 -4.17481,0.219726 -1.41608,0.04887 -2.88092,0.07329 -4.39453,0.07324 l -40.94238,0 m 74.70703,-28.637695 c -10e-5,-4.296799 -0.75693,-7.763592 -2.27051,-10.40039 -1.51376,-2.685463 -3.97958,-4.760656 -7.39746,-6.225586 -3.41805,-1.464754 -7.91024,-2.441316 -13.47656,-2.929688 -5.51765,-0.537017 -12.30475,-0.805572 -20.36133,-0.805664 l -31.20117,0 0,40.429688 30.9082,0 c 8.05658,5.1e-5 14.8681,-0.219675 20.43457,-0.65918 5.56633,-0.488229 10.08292,-1.440376 13.54981,-2.856445 3.4667,-1.464788 5.95693,-3.491153 7.4707,-6.079102 1.5624,-2.636655 2.34365,-6.127862 2.34375,-10.473633"
       style="font-size:150px;font-variant:normal;font-weight:normal;writing-mode:lr-tb;fill:#003333;fill-opacity:1;fill-rule:nonzero;stroke:none;font-family:Syncopate;-inkscape-font-specification:Syncopate-Regular"
       id="path4170" />
  </g>
  <g
     id="g3131"
     transform="matrix(1.25,0,0,1.25,-131.04089,-763.57138)">
    <path
       inkscape:connector-curvature="0"
       style="fill:none;stroke:#cc0033;stroke-width:7.19999981;stroke-linecap:butt;stroke-linejoin:miter;stroke-miterlimit:4;stroke-opacity:1;stroke-dasharray:none"
       id="path3133"
       d="m 113.598,625.754 414.293,0 0,115.473 -414.293,0 0,-115.473 z" />
  </g>
  <path
     inkscape:connector-curvature="0"
     style="fill:#ffffff;fill-opacity:1;fill-rule:nonzero;stroke:none"
     id="path3135"
     d="m 474.89161,5.06112 0,24.73125 -410,0 0,-24.73125 410,0 z" />
  <path
     inkscape:connector-curvature="0"
     style="fill:#ffffff;fill-opacity:1;fill-rule:nonzero;stroke:none"
     id="path3137"
     d="m 332.89036,153.06492 0,24.7312 -267.99875,0 0,-24.7312 267.99875,0 z" />
  <g
     style="font-size:15px"
     id="text3139">
    <path
       d="m 77.312019,159.60437 0,9.82422 -1.875,0 0,-9.82422 -1.875,0 0,-1.42578 1.875,0 0,-0.0977 c -3e-6,-0.7617 0.08463,-1.39647 0.253907,-1.90429 0.169267,-0.5078 0.449215,-0.9147 0.839843,-1.22071 0.390621,-0.30597 0.904943,-0.52082 1.542969,-0.64453 0.644525,-0.13019 1.43554,-0.1953 2.373047,-0.19531 l 2.177734,0 0,1.5625 -2.1875,0 c -0.592455,10e-6 -1.087246,0.013 -1.484375,0.0391 -0.397141,0.0261 -0.719407,0.11395 -0.966797,0.26367 -0.24089,0.14976 -0.413416,0.38739 -0.517578,0.71289 -0.104171,0.32554 -0.156255,0.78778 -0.15625,1.38672 l 0,0.0977 5.3125,0 0,1.42578 -5.3125,0"
       style="font-size:20px;font-variant:normal;font-weight:normal;writing-mode:lr-tb;fill:#000000;fill-opacity:1;fill-rule:nonzero;stroke:none;font-family:Michroma;-inkscape-font-specification:Michroma"
       id="path4269" />
    <path
       d="m 83.549507,163.72546 c -1e-6,-1.15233 0.123697,-2.10611 0.371094,-2.86132 0.247394,-0.7552 0.644529,-1.35416 1.191406,-1.79688 0.546872,-0.4427 1.256507,-0.75194 2.128906,-0.92773 0.872391,-0.18228 1.933588,-0.27343 3.183594,-0.27344 1.249991,10e-6 2.311188,0.0912 3.183594,0.27344 0.872384,0.17579 1.582019,0.48503 2.128906,0.92773 0.546861,0.44272 0.943996,1.04168 1.191406,1.79688 0.247382,0.75521 0.371079,1.70899 0.371094,2.86132 -1.5e-5,1.15235 -0.123712,2.10938 -0.371094,2.8711 -0.24741,0.76172 -0.644545,1.36719 -1.191406,1.8164 -0.546887,0.44922 -1.256522,0.76823 -2.128906,0.95704 -0.872406,0.18229 -1.933603,0.27343 -3.183594,0.27343 -1.250006,0 -2.311203,-0.0911 -3.183594,-0.27343 -0.872399,-0.18881 -1.582034,-0.50782 -2.128906,-0.95704 -0.546877,-0.44921 -0.944012,-1.05468 -1.191406,-1.8164 -0.247397,-0.76172 -0.371095,-1.71875 -0.371094,-2.8711 m 1.875,0 c -3e-6,0.62501 0.02278,1.16863 0.06836,1.63086 0.04557,0.46225 0.130205,0.85938 0.253906,1.19141 0.130205,0.33203 0.309241,0.60222 0.537109,0.81055 0.227861,0.20833 0.52734,0.37435 0.898438,0.49804 0.371088,0.1237 0.820307,0.20834 1.347656,0.25391 0.533848,0.0456 1.165357,0.0684 1.894531,0.0684 0.624992,0 1.181632,-0.013 1.669922,-0.0391 0.494782,-0.0326 0.924469,-0.10091 1.289063,-0.20508 0.371082,-0.10417 0.686837,-0.25065 0.947265,-0.43945 0.260405,-0.19532 0.468738,-0.45899 0.625,-0.79102 0.162748,-0.33203 0.279935,-0.73893 0.351563,-1.2207 0.07811,-0.48828 0.117174,-1.07422 0.117187,-1.75782 -1.3e-5,-0.67056 -0.03908,-1.24022 -0.117187,-1.70898 -0.07163,-0.47525 -0.188815,-0.87239 -0.351563,-1.19141 -0.156262,-0.319 -0.364595,-0.56965 -0.625,-0.75195 -0.260428,-0.18879 -0.576183,-0.32877 -0.947265,-0.41992 -0.364594,-0.0976 -0.794281,-0.1595 -1.289063,-0.18555 -0.48829,-0.026 -1.04493,-0.0391 -1.669922,-0.0391 -0.625007,10e-6 -1.184902,0.013 -1.679687,0.0391 -0.488287,0.026 -0.917974,0.0879 -1.289063,0.18555 -0.364588,0.0911 -0.677087,0.23113 -0.9375,0.41992 -0.26042,0.1823 -0.472009,0.43295 -0.634765,0.75195 -0.156254,0.31902 -0.273441,0.71616 -0.351563,1.19141 -0.07162,0.46876 -0.107425,1.03842 -0.107422,1.70898"
       style="font-size:20px;font-variant:normal;font-weight:normal;writing-mode:lr-tb;fill:#000000;fill-opacity:1;fill-rule:nonzero;stroke:none;font-family:Michroma;-inkscape-font-specification:Michroma"
       id="path4271" />
    <path
       d="m 109.16951,161.8407 c -1e-5,-0.46874 -0.0358,-0.85611 -0.10742,-1.16211 -0.0651,-0.31249 -0.22462,-0.55989 -0.47852,-0.74219 -0.25391,-0.18879 -0.63152,-0.319 -1.13281,-0.39062 -0.4948,-0.0781 -1.17188,-0.11718 -2.03125,-0.11719 -0.83985,10e-6 -1.52344,0.0749 -2.05078,0.22461 -0.52735,0.14324 -0.94076,0.34831 -1.24024,0.61523 -0.29948,0.26694 -0.50456,0.58595 -0.61523,0.95703 -0.10417,0.37111 -0.15625,0.78452 -0.15625,1.24024 l 0,6.96289 -1.875,0 0,-11.25 1.875,0 0,1.78711 c 0.0651,-0.20182 0.18554,-0.42317 0.36133,-0.66406 0.17578,-0.24739 0.4427,-0.47525 0.80078,-0.6836 0.35807,-0.21483 0.82031,-0.39387 1.38672,-0.53711 0.57291,-0.14322 1.2858,-0.21483 2.13867,-0.21484 0.97655,10e-6 1.77082,0.0879 2.38281,0.26367 0.61197,0.16928 1.08723,0.42319 1.42578,0.76172 0.34504,0.33204 0.57616,0.74545 0.69336,1.24023 0.12369,0.4948 0.18554,1.06447 0.18555,1.70899 l -1.5625,0"
       style="font-size:20px;font-variant:normal;font-weight:normal;writing-mode:lr-tb;fill:#000000;fill-opacity:1;fill-rule:nonzero;stroke:none;font-family:Michroma;-inkscape-font-specification:Michroma"
       id="path4273" />
  </g>
  <g
     style="font-size:15px"
     id="text3143">
    <path
       d="m 116.06202,163.82312 c 0,-0.78124 0.0391,-1.47135 0.11719,-2.07031 0.0781,-0.59895 0.21484,-1.11979 0.41015,-1.5625 0.20182,-0.4427 0.46875,-0.81054 0.80078,-1.10352 0.33854,-0.29947 0.76172,-0.54035 1.26954,-0.72265 0.51431,-0.18228 1.12304,-0.31249 1.82617,-0.39063 0.70312,-0.0781 1.52343,-0.11718 2.46093,-0.11719 1.25,1e-5 2.27864,0.0781 3.08594,0.23438 0.80728,0.14975 1.4453,0.38412 1.91406,0.70312 0.46874,0.31251 0.79426,0.7129 0.97657,1.20118 0.18228,0.48177 0.27342,1.05795 0.27343,1.72851 l -1.875,0 c -1e-5,-0.24088 -0.007,-0.46549 -0.0195,-0.67383 -0.013,-0.20832 -0.0619,-0.39712 -0.14648,-0.5664 -0.0781,-0.16927 -0.20509,-0.319 -0.38086,-0.44922 -0.17579,-0.13671 -0.42644,-0.25064 -0.75195,-0.3418 -0.32553,-0.0911 -0.73895,-0.15949 -1.24024,-0.20508 -0.4948,-0.0456 -1.10678,-0.0683 -1.83594,-0.0684 -0.83334,1e-5 -1.53646,0.0293 -2.10937,0.0879 -0.56641,0.0586 -1.03516,0.15626 -1.40625,0.29297 -0.3711,0.13022 -0.65756,0.30926 -0.85938,0.53711 -0.20182,0.22137 -0.34831,0.4948 -0.43945,0.82031 -0.0911,0.32553 -0.14649,0.70965 -0.16601,1.15235 -0.013,0.4362 -0.0195,0.94076 -0.0195,1.51367 0,0.5599 0.007,1.05795 0.0195,1.49414 0.0195,0.42969 0.0749,0.8073 0.16601,1.13281 0.0911,0.31902 0.23763,0.5892 0.43945,0.81055 0.20182,0.22136 0.48828,0.40039 0.85938,0.53711 0.37109,0.13672 0.83984,0.23438 1.40625,0.29297 0.57291,0.0586 1.27603,0.0879 2.10937,0.0879 0.72916,0 1.34114,-0.026 1.83594,-0.0781 0.50129,-0.0521 0.91471,-0.12695 1.24024,-0.22461 0.32551,-0.0977 0.57616,-0.21809 0.75195,-0.36132 0.17577,-0.14323 0.30272,-0.30599 0.38086,-0.48828 0.0846,-0.1888 0.13345,-0.39388 0.14648,-0.61524 0.013,-0.22786 0.0195,-0.472 0.0195,-0.73242 l 1.875,0 c -1e-5,0.6836 -0.0911,1.27604 -0.27343,1.77734 -0.18231,0.50131 -0.50783,0.91472 -0.97657,1.24024 -0.46876,0.31901 -1.10678,0.55664 -1.91406,0.71289 -0.8073,0.15625 -1.83594,0.23437 -3.08594,0.23437 -0.9375,0 -1.75781,-0.0391 -2.46093,-0.11718 -0.70313,-0.0781 -1.31186,-0.20508 -1.82617,-0.38086 -0.50782,-0.1823 -0.931,-0.41993 -1.26954,-0.71289 -0.33203,-0.29297 -0.59896,-0.6543 -0.80078,-1.08399 -0.19531,-0.42968 -0.33203,-0.93424 -0.41015,-1.51367 -0.0781,-0.58593 -0.11719,-1.25651 -0.11719,-2.01172"
       style="font-size:20px;font-variant:normal;font-weight:normal;writing-mode:lr-tb;fill:#cc0033;fill-opacity:1;fill-rule:nonzero;stroke:none;font-family:Michroma;-inkscape-font-specification:Michroma"
       id="path4256" />
    <path
       d="m 142.89569,167.88562 c -0.0195,0.0781 -0.16603,0.27344 -0.43945,0.58594 -0.19533,0.23437 -0.45574,0.44271 -0.78125,0.625 -0.32553,0.17578 -0.76173,0.3125 -1.3086,0.41015 -0.54037,0.10417 -1.25326,0.15625 -2.13867,0.15625 -1.17839,0 -2.18425,-0.0618 -3.01758,-0.18554 -0.83333,-0.11719 -1.51367,-0.29948 -2.04101,-0.54688 -0.52735,-0.2539 -0.91472,-0.57617 -1.16211,-0.96679 -0.24089,-0.39063 -0.36133,-0.85612 -0.36133,-1.39649 0,-0.5664 0.0651,-1.04492 0.19531,-1.43555 0.13672,-0.39713 0.33203,-0.72916 0.58594,-0.99609 0.26042,-0.26692 0.57292,-0.47525 0.9375,-0.625 0.36458,-0.14973 0.77799,-0.26367 1.24024,-0.3418 0.46874,-0.0781 0.97981,-0.12694 1.5332,-0.14648 0.55338,-0.0195 1.14257,-0.0293 1.76758,-0.0293 0.89192,1e-5 1.63736,0.0391 2.23632,0.11719 0.59895,0.0716 1.08723,0.16602 1.46485,0.2832 0.3841,0.11069 0.67381,0.23113 0.86914,0.36133 0.1953,0.13021 0.33527,0.25066 0.41992,0.36133 -1e-5,-0.72916 -0.0326,-1.35091 -0.0977,-1.86524 -0.0586,-0.51431 -0.15951,-0.944 -0.30273,-1.28906 -0.13673,-0.34504 -0.31577,-0.61848 -0.53711,-0.82031 -0.22136,-0.20832 -0.4948,-0.36457 -0.82031,-0.46875 -0.31902,-0.10416 -0.69337,-0.16926 -1.12305,-0.19531 -0.4297,-0.0325 -0.92123,-0.0488 -1.47461,-0.0488 -0.85938,10e-6 -1.57227,0.0228 -2.13867,0.0684 -0.56641,0.0391 -1.01563,0.12045 -1.34766,0.24414 -0.33203,0.12371 -0.56641,0.29623 -0.70312,0.51758 -0.13672,0.21485 -0.20508,0.49805 -0.20508,0.84961 l -1.875,0 c 0,-0.59244 0.10417,-1.09374 0.3125,-1.50391 0.21484,-0.41015 0.5664,-0.74218 1.05469,-0.99609 0.49479,-0.26041 1.14257,-0.44921 1.94336,-0.56641 0.80077,-0.11718 1.7871,-0.17577 2.95898,-0.17578 1.14583,10e-6 2.11588,0.0944 2.91016,0.2832 0.79426,0.18882 1.43553,0.52085 1.92383,0.9961 0.49477,0.47527 0.84959,1.11654 1.06445,1.92382 0.22134,0.80079 0.33202,1.81642 0.33203,3.04688 l 0,5.3125 -1.875,0 0,-1.54297 m -4.35547,0.29297 c 0.82682,0 1.51692,-0.0391 2.07031,-0.11719 0.55989,-0.0781 1.00911,-0.19531 1.34766,-0.35156 0.33853,-0.15625 0.57942,-0.35156 0.72266,-0.58594 0.14321,-0.23437 0.21483,-0.50781 0.21484,-0.82031 -1e-5,-0.3125 -0.0847,-0.57617 -0.25391,-0.79102 -0.16277,-0.22135 -0.43946,-0.40038 -0.83007,-0.53711 -0.38413,-0.13671 -0.8952,-0.23437 -1.53321,-0.29296 -0.63803,-0.0651 -1.42579,-0.0977 -2.36328,-0.0977 -0.9375,0 -1.69597,0.0163 -2.27539,0.0488 -0.57292,0.0326 -1.01563,0.10742 -1.32812,0.22461 -0.31251,0.11719 -0.5241,0.28971 -0.63477,0.51757 -0.10417,0.22787 -0.15625,0.53712 -0.15625,0.92774 0,0.39063 0.0553,0.70964 0.16602,0.95703 0.11718,0.24089 0.35156,0.42969 0.70312,0.56641 0.35156,0.13672 0.85612,0.23112 1.51367,0.2832 0.66406,0.0456 1.54297,0.0684 2.63672,0.0684"
       style="font-size:20px;font-variant:normal;font-weight:normal;writing-mode:lr-tb;fill:#cc0033;fill-opacity:1;fill-rule:nonzero;stroke:none;font-family:Michroma;-inkscape-font-specification:Michroma"
       id="path4258" />
    <path
       d="m 158.50452,169.42859 0,-6.25 c -2e-5,-0.69661 -0.0521,-1.28255 -0.15625,-1.75781 -0.10418,-0.48177 -0.31252,-0.86914 -0.625,-1.16211 -0.31251,-0.29296 -0.75522,-0.50455 -1.32813,-0.63477 -0.57292,-0.1302 -1.32813,-0.1953 -2.26562,-0.19531 -1.01564,10e-6 -1.84897,0.0749 -2.5,0.22461 -0.64454,0.14975 -1.15235,0.36134 -1.52344,0.63476 -0.3711,0.27345 -0.62826,0.60223 -0.77149,0.98633 -0.13672,0.38412 -0.20508,0.81056 -0.20507,1.2793 l 0,6.875 -1.875,0 0,-11.25 1.875,0 0,1.875 c 0.13671,-0.319 0.33202,-0.59244 0.58593,-0.82031 0.25391,-0.23437 0.54036,-0.43294 0.85938,-0.59571 0.319,-0.16275 0.66406,-0.29295 1.03516,-0.39062 0.37108,-0.10416 0.74218,-0.18228 1.11328,-0.23438 0.37108,-0.0586 0.72916,-0.0976 1.07422,-0.11718 0.35155,-0.0195 0.67056,-0.0293 0.95703,-0.0293 0.83332,10e-6 1.54947,0.0521 2.14843,0.15625 0.60546,0.10418 1.11653,0.25717 1.53321,0.45898 0.42316,0.20184 0.7617,0.45249 1.01562,0.75196 0.25389,0.29949 0.44921,0.64779 0.58594,1.04492 0.14321,0.39063 0.23762,0.83008 0.2832,1.31836 0.0456,0.48178 0.0684,1.00912 0.0684,1.58203 l -0.01,6.25 -1.875,0"
       style="font-size:20px;font-variant:normal;font-weight:normal;writing-mode:lr-tb;fill:#cc0033;fill-opacity:1;fill-rule:nonzero;stroke:none;font-family:Michroma;-inkscape-font-specification:Michroma"
       id="path4260" />
    <path
       d="m 162.56201,163.82312 c 0,-0.78124 0.0391,-1.47135 0.11719,-2.07031 0.0781,-0.59895 0.21484,-1.11979 0.41016,-1.5625 0.20182,-0.4427 0.46874,-0.81054 0.80078,-1.10352 0.33854,-0.29947 0.76171,-0.54035 1.26953,-0.72265 0.51432,-0.18228 1.12304,-0.31249 1.82617,-0.39063 0.70312,-0.0781 1.52343,-0.11718 2.46094,-0.11719 1.24999,1e-5 2.27863,0.0781 3.08593,0.23438 0.80728,0.14975 1.4453,0.38412 1.91407,0.70312 0.46873,0.31251 0.79425,0.7129 0.97656,1.20118 0.18228,0.48177 0.27342,1.05795 0.27344,1.72851 l -1.875,0 c -1e-5,-0.24088 -0.007,-0.46549 -0.0195,-0.67383 -0.013,-0.20832 -0.0619,-0.39712 -0.14649,-0.5664 -0.0781,-0.16927 -0.20509,-0.319 -0.38086,-0.44922 -0.17579,-0.13671 -0.42644,-0.25064 -0.75195,-0.3418 -0.32553,-0.0911 -0.73894,-0.15949 -1.24024,-0.20508 -0.4948,-0.0456 -1.10677,-0.0683 -1.83593,-0.0684 -0.83334,1e-5 -1.53647,0.0293 -2.10938,0.0879 -0.56641,0.0586 -1.03516,0.15626 -1.40625,0.29297 -0.3711,0.13022 -0.65755,0.30926 -0.85937,0.53711 -0.20183,0.22137 -0.34831,0.4948 -0.43946,0.82031 -0.0911,0.32553 -0.14648,0.70965 -0.16601,1.15235 -0.013,0.4362 -0.0195,0.94076 -0.0195,1.51367 -1e-5,0.5599 0.007,1.05795 0.0195,1.49414 0.0195,0.42969 0.0749,0.8073 0.16601,1.13281 0.0911,0.31902 0.23763,0.5892 0.43946,0.81055 0.20182,0.22136 0.48827,0.40039 0.85937,0.53711 0.37109,0.13672 0.83984,0.23438 1.40625,0.29297 0.57291,0.0586 1.27604,0.0879 2.10938,0.0879 0.72916,0 1.34113,-0.026 1.83593,-0.0781 0.5013,-0.0521 0.91471,-0.12695 1.24024,-0.22461 0.32551,-0.0977 0.57616,-0.21809 0.75195,-0.36132 0.17577,-0.14323 0.30272,-0.30599 0.38086,-0.48828 0.0846,-0.1888 0.13345,-0.39388 0.14649,-0.61524 0.013,-0.22786 0.0195,-0.472 0.0195,-0.73242 l 1.875,0 c -2e-5,0.6836 -0.0912,1.27604 -0.27344,1.77734 -0.18231,0.50131 -0.50783,0.91472 -0.97656,1.24024 -0.46877,0.31901 -1.10679,0.55664 -1.91407,0.71289 -0.8073,0.15625 -1.83594,0.23437 -3.08593,0.23437 -0.93751,0 -1.75782,-0.0391 -2.46094,-0.11718 -0.70313,-0.0781 -1.31185,-0.20508 -1.82617,-0.38086 -0.50782,-0.1823 -0.93099,-0.41993 -1.26953,-0.71289 -0.33204,-0.29297 -0.59896,-0.6543 -0.80078,-1.08399 -0.19532,-0.42968 -0.33204,-0.93424 -0.41016,-1.51367 -0.0781,-0.58593 -0.11719,-1.25651 -0.11719,-2.01172"
       style="font-size:20px;font-variant:normal;font-weight:normal;writing-mode:lr-tb;fill:#cc0033;fill-opacity:1;fill-rule:nonzero;stroke:none;font-family:Michroma;-inkscape-font-specification:Michroma"
       id="path4262" />
    <path
       d="m 184.757,169.64343 c -1.25,0 -2.3112,-0.0846 -3.18359,-0.2539 -0.8724,-0.17578 -1.58203,-0.47526 -2.12891,-0.89844 -0.54687,-0.42318 -0.94401,-0.98958 -1.1914,-1.69922 -0.2474,-0.70963 -0.3711,-1.60156 -0.3711,-2.67578 0,-1.23046 0.1237,-2.24609 0.3711,-3.04688 0.24739,-0.80728 0.64453,-1.44855 1.1914,-1.92382 0.54688,-0.47525 1.25651,-0.80728 2.12891,-0.9961 0.87239,-0.18879 1.93359,-0.28319 3.18359,-0.2832 0.89192,10e-6 1.66341,0.0651 2.31446,0.19531 0.65754,0.13022 1.21743,0.31902 1.67968,0.56641 0.46874,0.2474 0.84635,0.54688 1.13282,0.89844 0.29295,0.35157 0.52082,0.72266 0.68359,1.11328 0.16926,0.38412 0.28319,0.83659 0.3418,1.35742 0.0651,0.52084 0.0976,1.07097 0.0977,1.65039 l -0.15625,0.625 -11.09375,0 c 0,0.85938 0.0846,1.56576 0.25391,2.11914 0.16927,0.54688 0.44922,0.94727 0.83984,1.20117 0.39062,0.25391 0.90495,0.41667 1.54297,0.48828 0.63802,0.0651 1.42578,0.0977 2.36328,0.0977 0.85937,0 1.569,-0.0228 2.12891,-0.0684 0.5664,-0.0521 1.01561,-0.14648 1.34766,-0.2832 0.33202,-0.13672 0.56314,-0.32552 0.69336,-0.56641 0.1367,-0.24739 0.20506,-0.5664 0.20507,-0.95703 l 1.875,0 c -1e-5,0.60547 -0.10743,1.12305 -0.32226,1.55273 -0.20835,0.42318 -0.55666,0.76823 -1.04492,1.03516 -0.4883,0.26042 -1.13283,0.44922 -1.9336,0.56641 -0.79428,0.12369 -1.77735,0.18554 -2.94922,0.18554 m 0,-10.21484 c -0.625,10e-6 -1.1849,0.013 -1.67968,0.0391 -0.48829,0.026 -0.91798,0.0847 -1.28907,0.17578 -0.36458,0.0847 -0.67708,0.2116 -0.9375,0.38086 -0.26042,0.16277 -0.472,0.35808 -0.63476,0.58594 -0.15625,0.22136 -0.27344,0.53712 -0.35156,0.94727 -0.0716,0.40365 -0.10743,0.89193 -0.10743,1.46484 l 9.375,0 c -1e-5,-0.76171 -0.0814,-1.35742 -0.24414,-1.78711 -0.16277,-0.43619 -0.41993,-0.79426 -0.77148,-1.07422 -0.35157,-0.27994 -0.80405,-0.47199 -1.35742,-0.57617 -0.5534,-0.10416 -1.22071,-0.15624 -2.00196,-0.15625"
       style="font-size:20px;font-variant:normal;font-weight:normal;writing-mode:lr-tb;fill:#cc0033;fill-opacity:1;fill-rule:nonzero;stroke:none;font-family:Michroma;-inkscape-font-specification:Michroma"
       id="path4264" />
    <path
       d="m 203.18202,161.8407 c -1e-5,-0.46874 -0.0358,-0.85611 -0.10742,-1.16211 -0.0651,-0.31249 -0.22462,-0.55989 -0.47852,-0.74219 -0.25391,-0.18879 -0.63152,-0.319 -1.13281,-0.39062 -0.4948,-0.0781 -1.17188,-0.11718 -2.03125,-0.11719 -0.83985,10e-6 -1.52344,0.0749 -2.05078,0.22461 -0.52735,0.14324 -0.94076,0.34831 -1.24023,0.61523 -0.29949,0.26694 -0.50456,0.58595 -0.61524,0.95703 -0.10417,0.37111 -0.15625,0.78452 -0.15625,1.24024 l 0,6.96289 -1.875,0 0,-11.25 1.875,0 0,1.78711 c 0.0651,-0.20182 0.18555,-0.42317 0.36133,-0.66406 0.17578,-0.24739 0.4427,-0.47525 0.80078,-0.6836 0.35807,-0.21483 0.82031,-0.39387 1.38672,-0.53711 0.57291,-0.14322 1.2858,-0.21483 2.13867,-0.21484 0.97656,10e-6 1.77083,0.0879 2.38281,0.26367 0.61197,0.16928 1.08723,0.42319 1.42579,0.76172 0.34504,0.33204 0.57616,0.74545 0.69336,1.24023 0.12368,0.4948 0.18553,1.06447 0.18554,1.70899 l -1.5625,0"
       style="font-size:20px;font-variant:normal;font-weight:normal;writing-mode:lr-tb;fill:#cc0033;fill-opacity:1;fill-rule:nonzero;stroke:none;font-family:Michroma;-inkscape-font-specification:Michroma"
       id="path4266" />
  </g>
  <g
     style="font-size:15px"
     id="text3147">
    <path
       d="m 220.07045,161.8407 c -1e-5,-0.46874 -0.0358,-0.85611 -0.10742,-1.16211 -0.0651,-0.31249 -0.22462,-0.55989 -0.47852,-0.74219 -0.25391,-0.18879 -0.63152,-0.319 -1.13281,-0.39062 -0.4948,-0.0781 -1.17188,-0.11718 -2.03125,-0.11719 -0.83985,10e-6 -1.52344,0.0749 -2.05078,0.22461 -0.52735,0.14324 -0.94076,0.34831 -1.24024,0.61523 -0.29948,0.26694 -0.50456,0.58595 -0.61523,0.95703 -0.10417,0.37111 -0.15625,0.78452 -0.15625,1.24024 l 0,6.96289 -1.875,0 0,-11.25 1.875,0 0,1.78711 c 0.0651,-0.20182 0.18554,-0.42317 0.36133,-0.66406 0.17578,-0.24739 0.4427,-0.47525 0.80078,-0.6836 0.35807,-0.21483 0.82031,-0.39387 1.38672,-0.53711 0.57291,-0.14322 1.2858,-0.21483 2.13867,-0.21484 0.97655,10e-6 1.77082,0.0879 2.38281,0.26367 0.61197,0.16928 1.08723,0.42319 1.42578,0.76172 0.34504,0.33204 0.57616,0.74545 0.69336,1.24023 0.12369,0.4948 0.18554,1.06447 0.18555,1.70899 l -1.5625,0"
       style="font-size:20px;font-variant:normal;font-weight:normal;writing-mode:lr-tb;fill:#000000;fill-opacity:1;fill-rule:nonzero;stroke:none;font-family:Michroma;-inkscape-font-specification:Michroma"
       id="path4183" />
    <path
       d="m 229.44545,169.64343 c -1.25001,0 -2.3112,-0.0846 -3.18359,-0.2539 -0.8724,-0.17578 -1.58204,-0.47526 -2.12891,-0.89844 -0.54688,-0.42318 -0.94401,-0.98958 -1.19141,-1.69922 -0.24739,-0.70963 -0.37109,-1.60156 -0.37109,-2.67578 0,-1.23046 0.1237,-2.24609 0.37109,-3.04688 0.2474,-0.80728 0.64453,-1.44855 1.19141,-1.92382 0.54687,-0.47525 1.25651,-0.80728 2.12891,-0.9961 0.87239,-0.18879 1.93358,-0.28319 3.18359,-0.2832 0.89192,10e-6 1.6634,0.0651 2.31445,0.19531 0.65754,0.13022 1.21744,0.31902 1.67969,0.56641 0.46874,0.2474 0.84634,0.54688 1.13281,0.89844 0.29296,0.35157 0.52082,0.72266 0.6836,1.11328 0.16925,0.38412 0.28319,0.83659 0.34179,1.35742 0.0651,0.52084 0.0976,1.07097 0.0977,1.65039 l -0.15625,0.625 -11.09375,0 c 0,0.85938 0.0846,1.56576 0.25391,2.11914 0.16926,0.54688 0.44921,0.94727 0.83984,1.20117 0.39062,0.25391 0.90494,0.41667 1.54297,0.48828 0.63801,0.0651 1.42577,0.0977 2.36328,0.0977 0.85937,0 1.569,-0.0228 2.12891,-0.0684 0.56639,-0.0521 1.01561,-0.14648 1.34765,-0.2832 0.33202,-0.13672 0.56314,-0.32552 0.69336,-0.56641 0.13671,-0.24739 0.20507,-0.5664 0.20508,-0.95703 l 1.875,0 c -1e-5,0.60547 -0.10744,1.12305 -0.32227,1.55273 -0.20834,0.42318 -0.55665,0.76823 -1.04492,1.03516 -0.48829,0.26042 -1.13282,0.44922 -1.93359,0.56641 -0.79428,0.12369 -1.77735,0.18554 -2.94922,0.18554 m 0,-10.21484 c -0.62501,10e-6 -1.1849,0.013 -1.67969,0.0391 -0.48828,0.026 -0.91797,0.0847 -1.28906,0.17578 -0.36459,0.0847 -0.67709,0.2116 -0.9375,0.38086 -0.26042,0.16277 -0.47201,0.35808 -0.63477,0.58594 -0.15625,0.22136 -0.27344,0.53712 -0.35156,0.94727 -0.0716,0.40365 -0.10742,0.89193 -0.10742,1.46484 l 9.375,0 c -1e-5,-0.76171 -0.0814,-1.35742 -0.24414,-1.78711 -0.16277,-0.43619 -0.41993,-0.79426 -0.77149,-1.07422 -0.35157,-0.27994 -0.80404,-0.47199 -1.35742,-0.57617 -0.55339,-0.10416 -1.22071,-0.15624 -2.00195,-0.15625"
       style="font-size:20px;font-variant:normal;font-weight:normal;writing-mode:lr-tb;fill:#000000;fill-opacity:1;fill-rule:nonzero;stroke:none;font-family:Michroma;-inkscape-font-specification:Michroma"
       id="path4185" />
    <path
       d="m 244.74544,164.30164 c 0.72916,0 1.3509,0.013 1.86523,0.0391 0.51431,0.0195 0.944,0.0586 1.28906,0.11719 0.35156,0.0521 0.62825,0.12044 0.83008,0.20507 0.20181,0.0846 0.35481,0.2116 0.45899,0.38086 0.10415,0.16277 0.16926,0.32878 0.19531,0.49805 0.0325,0.16276 0.0488,0.35157 0.0488,0.56641 -1e-5,0.23437 -0.0163,0.44922 -0.0488,0.64453 -0.026,0.1888 -0.0944,0.36133 -0.20508,0.51758 -0.11069,0.15625 -0.27345,0.28971 -0.48828,0.40039 -0.21486,0.11068 -0.50782,0.20508 -0.87891,0.2832 -0.3711,0.0781 -0.83334,0.13672 -1.38671,0.17578 -0.54689,0.0325 -1.21095,0.0488 -1.99219,0.0488 -0.85938,0 -1.57227,-0.0228 -2.13867,-0.0684 -0.5599,-0.0521 -1.00587,-0.14648 -1.33789,-0.2832 -0.33204,-0.13672 -0.56641,-0.32552 -0.70313,-0.56641 -0.13021,-0.24739 -0.19532,-0.5664 -0.19531,-0.95703 l -1.875,0 c 0,0.59245 0.10416,1.09375 0.3125,1.50391 0.21484,0.41015 0.5664,0.74544 1.05469,1.00585 0.48827,0.25391 1.12955,0.43946 1.92382,0.55665 0.80078,0.11718 1.78711,0.17578 2.95899,0.17578 0.93749,0 1.7578,-0.0293 2.46094,-0.0879 0.70962,-0.0521 1.31834,-0.13347 1.82617,-0.24414 0.5078,-0.11719 0.92772,-0.26693 1.25976,-0.44922 0.33853,-0.1888 0.60546,-0.41016 0.80078,-0.66407 0.1953,-0.26041 0.33202,-0.55663 0.41016,-0.88867 0.0781,-0.33854 0.11717,-0.7194 0.11719,-1.14258 -2e-5,-0.42317 -0.0391,-0.79426 -0.11719,-1.11328 -0.0781,-0.32551 -0.21486,-0.60546 -0.41016,-0.83984 -0.18881,-0.24088 -0.44272,-0.46223 -0.76171,-0.66406 -0.31903,-0.20182 -0.72267,-0.35156 -1.21094,-0.44922 -0.4883,-0.0977 -1.06772,-0.16601 -1.73828,-0.20508 -0.66408,-0.0391 -1.43881,-0.0586 -2.32422,-0.0586 -0.72918,0 -1.35092,0 -1.86524,0 -0.51433,-0.007 -0.94727,-0.026 -1.29882,-0.0586 -0.34506,-0.0391 -0.6185,-0.0944 -0.82032,-0.16601 -0.20182,-0.0716 -0.35482,-0.17578 -0.45898,-0.3125 -0.10417,-0.13672 -0.17253,-0.30924 -0.20508,-0.51758 -0.026,-0.21484 -0.0391,-0.43294 -0.0391,-0.6543 -1e-5,-0.37759 0.0846,-0.67382 0.2539,-0.88867 0.16927,-0.21483 0.44922,-0.37434 0.83985,-0.47852 0.39062,-0.10415 0.90494,-0.16926 1.54297,-0.19531 0.63801,-0.026 1.42577,-0.0391 2.36328,-0.0391 0.85936,10e-6 1.569,0.026 2.1289,0.0781 0.5664,0.0456 1.01562,0.13348 1.34766,0.26368 0.33202,0.1237 0.56314,0.29623 0.69336,0.51757 0.13671,0.22137 0.20507,0.50782 0.20508,0.85938 l 1.875,0 c -2e-5,-0.5664 -0.0944,-1.05468 -0.28321,-1.46484 -0.18881,-0.41015 -0.52084,-0.74869 -0.99609,-1.01563 -0.46876,-0.27343 -1.10678,-0.47525 -1.91406,-0.60547 -0.80079,-0.1302 -1.81967,-0.1953 -3.05664,-0.19531 -1.25001,10e-6 -2.31121,0.0553 -3.1836,0.16601 -0.8724,0.11069 -1.58203,0.29298 -2.1289,0.54688 -0.54688,0.24741 -0.94401,0.57293 -1.19141,0.97656 -0.2474,0.39715 -0.37109,0.88868 -0.37109,1.47461 0,0.4297 0.0391,0.83009 0.11719,1.20117 0.0781,0.36459 0.21158,0.67384 0.40039,0.92774 0.1888,0.2474 0.4427,0.44597 0.76171,0.5957 0.32552,0.14975 0.72917,0.26693 1.21094,0.35156 0.48828,0.0781 1.06771,0.13022 1.73828,0.15625 0.67057,0.026 1.44856,0.0391 2.33399,0.0391"
       style="font-size:20px;font-variant:normal;font-weight:normal;writing-mode:lr-tb;fill:#000000;fill-opacity:1;fill-rule:nonzero;stroke:none;font-family:Michroma;-inkscape-font-specification:Michroma"
       id="path4187" />
    <path
       d="m 260.36543,169.64343 c -1.25,0 -2.3112,-0.0846 -3.18359,-0.2539 -0.8724,-0.17578 -1.58204,-0.47526 -2.12891,-0.89844 -0.54687,-0.42318 -0.94401,-0.98958 -1.1914,-1.69922 -0.2474,-0.70963 -0.3711,-1.60156 -0.3711,-2.67578 0,-1.23046 0.1237,-2.24609 0.3711,-3.04688 0.24739,-0.80728 0.64453,-1.44855 1.1914,-1.92382 0.54687,-0.47525 1.25651,-0.80728 2.12891,-0.9961 0.87239,-0.18879 1.93359,-0.28319 3.18359,-0.2832 0.89192,10e-6 1.6634,0.0651 2.31446,0.19531 0.65754,0.13022 1.21743,0.31902 1.67968,0.56641 0.46874,0.2474 0.84634,0.54688 1.13282,0.89844 0.29295,0.35157 0.52082,0.72266 0.68359,1.11328 0.16926,0.38412 0.28319,0.83659 0.3418,1.35742 0.0651,0.52084 0.0976,1.07097 0.0976,1.65039 l -0.15625,0.625 -11.09375,0 c 0,0.85938 0.0846,1.56576 0.25391,2.11914 0.16927,0.54688 0.44921,0.94727 0.83984,1.20117 0.39062,0.25391 0.90495,0.41667 1.54297,0.48828 0.63802,0.0651 1.42578,0.0977 2.36328,0.0977 0.85937,0 1.569,-0.0228 2.12891,-0.0684 0.56639,-0.0521 1.01561,-0.14648 1.34766,-0.2832 0.33201,-0.13672 0.56313,-0.32552 0.69335,-0.56641 0.13671,-0.24739 0.20507,-0.5664 0.20508,-0.95703 l 1.875,0 c -1e-5,0.60547 -0.10743,1.12305 -0.32226,1.55273 -0.20835,0.42318 -0.55666,0.76823 -1.04492,1.03516 -0.4883,0.26042 -1.13283,0.44922 -1.9336,0.56641 -0.79428,0.12369 -1.77735,0.18554 -2.94922,0.18554 m 0,-10.21484 c -0.625,10e-6 -1.1849,0.013 -1.67968,0.0391 -0.48829,0.026 -0.91798,0.0847 -1.28907,0.17578 -0.36459,0.0847 -0.67708,0.2116 -0.9375,0.38086 -0.26042,0.16277 -0.47201,0.35808 -0.63476,0.58594 -0.15626,0.22136 -0.27344,0.53712 -0.35157,0.94727 -0.0716,0.40365 -0.10742,0.89193 -0.10742,1.46484 l 9.375,0 c -1e-5,-0.76171 -0.0814,-1.35742 -0.24414,-1.78711 -0.16277,-0.43619 -0.41993,-0.79426 -0.77148,-1.07422 -0.35158,-0.27994 -0.80405,-0.47199 -1.35742,-0.57617 -0.5534,-0.10416 -1.22072,-0.15624 -2.00196,-0.15625"
       style="font-size:20px;font-variant:normal;font-weight:normal;writing-mode:lr-tb;fill:#000000;fill-opacity:1;fill-rule:nonzero;stroke:none;font-family:Michroma;-inkscape-font-specification:Michroma"
       id="path4189" />
    <path
       d="m 280.30414,167.88562 c -0.0196,0.0781 -0.16603,0.27344 -0.43945,0.58594 -0.19533,0.23437 -0.45575,0.44271 -0.78125,0.625 -0.32554,0.17578 -0.76173,0.3125 -1.3086,0.41015 -0.54037,0.10417 -1.25326,0.15625 -2.13867,0.15625 -1.17839,0 -2.18425,-0.0618 -3.01758,-0.18554 -0.83334,-0.11719 -1.51367,-0.29948 -2.04101,-0.54688 -0.52735,-0.2539 -0.91472,-0.57617 -1.16211,-0.96679 -0.24089,-0.39063 -0.36133,-0.85612 -0.36133,-1.39649 0,-0.5664 0.0651,-1.04492 0.19531,-1.43555 0.13672,-0.39713 0.33203,-0.72916 0.58594,-0.99609 0.26041,-0.26692 0.57291,-0.47525 0.9375,-0.625 0.36458,-0.14973 0.77799,-0.26367 1.24023,-0.3418 0.46875,-0.0781 0.97982,-0.12694 1.53321,-0.14648 0.55337,-0.0195 1.14257,-0.0293 1.76757,-0.0293 0.89192,1e-5 1.63736,0.0391 2.23633,0.11719 0.59895,0.0716 1.08723,0.16602 1.46485,0.2832 0.3841,0.11069 0.67381,0.23113 0.86914,0.36133 0.1953,0.13021 0.33527,0.25066 0.41992,0.36133 -1e-5,-0.72916 -0.0326,-1.35091 -0.0977,-1.86524 -0.0586,-0.51431 -0.15952,-0.944 -0.30273,-1.28906 -0.13673,-0.34504 -0.31577,-0.61848 -0.53711,-0.82031 -0.22137,-0.20832 -0.4948,-0.36457 -0.82031,-0.46875 -0.31903,-0.10416 -0.69337,-0.16926 -1.12305,-0.19531 -0.4297,-0.0325 -0.92123,-0.0488 -1.47461,-0.0488 -0.85938,10e-6 -1.57227,0.0228 -2.13867,0.0684 -0.56641,0.0391 -1.01563,0.12045 -1.34766,0.24414 -0.33203,0.12371 -0.56641,0.29623 -0.70312,0.51758 -0.13673,0.21485 -0.20509,0.49805 -0.20508,0.84961 l -1.875,0 c 0,-0.59244 0.10416,-1.09374 0.3125,-1.50391 0.21484,-0.41015 0.5664,-0.74218 1.05469,-0.99609 0.49478,-0.26041 1.14257,-0.44921 1.94336,-0.56641 0.80077,-0.11718 1.7871,-0.17577 2.95898,-0.17578 1.14582,10e-6 2.11587,0.0944 2.91016,0.2832 0.79425,0.18882 1.43553,0.52085 1.92382,0.9961 0.49478,0.47527 0.8496,1.11654 1.06446,1.92382 0.22134,0.80079 0.33201,1.81642 0.33203,3.04688 l 0,5.3125 -1.875,0 0,-1.54297 m -4.35547,0.29297 c 0.82681,0 1.51692,-0.0391 2.07031,-0.11719 0.55989,-0.0781 1.00911,-0.19531 1.34766,-0.35156 0.33853,-0.15625 0.57941,-0.35156 0.72265,-0.58594 0.14322,-0.23437 0.21484,-0.50781 0.21485,-0.82031 -1e-5,-0.3125 -0.0847,-0.57617 -0.25391,-0.79102 -0.16277,-0.22135 -0.43946,-0.40038 -0.83008,-0.53711 -0.38412,-0.13671 -0.89519,-0.23437 -1.5332,-0.29296 -0.63803,-0.0651 -1.42579,-0.0977 -2.36328,-0.0977 -0.93751,0 -1.69597,0.0163 -2.27539,0.0488 -0.57292,0.0326 -1.01563,0.10742 -1.32813,0.22461 -0.3125,0.11719 -0.52409,0.28971 -0.63476,0.51757 -0.10417,0.22787 -0.15625,0.53712 -0.15625,0.92774 0,0.39063 0.0553,0.70964 0.16601,0.95703 0.11719,0.24089 0.35156,0.42969 0.70313,0.56641 0.35156,0.13672 0.85611,0.23112 1.51367,0.2832 0.66406,0.0456 1.54296,0.0684 2.63672,0.0684"
       style="font-size:20px;font-variant:normal;font-weight:normal;writing-mode:lr-tb;fill:#000000;fill-opacity:1;fill-rule:nonzero;stroke:none;font-family:Michroma;-inkscape-font-specification:Michroma"
       id="path4191" />
    <path
       d="m 294.35046,161.8407 c -10e-6,-0.46874 -0.0358,-0.85611 -0.10742,-1.16211 -0.0651,-0.31249 -0.22462,-0.55989 -0.47851,-0.74219 -0.25392,-0.18879 -0.63152,-0.319 -1.13282,-0.39062 -0.4948,-0.0781 -1.17188,-0.11718 -2.03125,-0.11719 -0.83985,10e-6 -1.52344,0.0749 -2.05078,0.22461 -0.52735,0.14324 -0.94076,0.34831 -1.24023,0.61523 -0.29948,0.26694 -0.50456,0.58595 -0.61524,0.95703 -0.10417,0.37111 -0.15625,0.78452 -0.15625,1.24024 l 0,6.96289 -1.875,0 0,-11.25 1.875,0 0,1.78711 c 0.0651,-0.20182 0.18555,-0.42317 0.36133,-0.66406 0.17578,-0.24739 0.44271,-0.47525 0.80078,-0.6836 0.35807,-0.21483 0.82031,-0.39387 1.38672,-0.53711 0.57291,-0.14322 1.2858,-0.21483 2.13867,-0.21484 0.97656,10e-6 1.77083,0.0879 2.38282,0.26367 0.61196,0.16928 1.08722,0.42319 1.42578,0.76172 0.34504,0.33204 0.57616,0.74545 0.69336,1.24023 0.12368,0.4948 0.18553,1.06447 0.18554,1.70899 l -1.5625,0"
       style="font-size:20px;font-variant:normal;font-weight:normal;writing-mode:lr-tb;fill:#000000;fill-opacity:1;fill-rule:nonzero;stroke:none;font-family:Michroma;-inkscape-font-specification:Michroma"
       id="path4193" />
    <path
       d="m 296.85046,163.82312 c 0,-0.78124 0.0391,-1.47135 0.11719,-2.07031 0.0781,-0.59895 0.21484,-1.11979 0.41016,-1.5625 0.20182,-0.4427 0.46875,-0.81054 0.80078,-1.10352 0.33854,-0.29947 0.76171,-0.54035 1.26953,-0.72265 0.51432,-0.18228 1.12304,-0.31249 1.82617,-0.39063 0.70312,-0.0781 1.52343,-0.11718 2.46094,-0.11719 1.24999,1e-5 2.27864,0.0781 3.08594,0.23438 0.80728,0.14975 1.4453,0.38412 1.91406,0.70312 0.46874,0.31251 0.79426,0.7129 0.97656,1.20118 0.18228,0.48177 0.27343,1.05795 0.27344,1.72851 l -1.875,0 c -10e-6,-0.24088 -0.007,-0.46549 -0.0195,-0.67383 -0.013,-0.20832 -0.0619,-0.39712 -0.14649,-0.5664 -0.0781,-0.16927 -0.20509,-0.319 -0.38086,-0.44922 -0.17579,-0.13671 -0.42644,-0.25064 -0.75195,-0.3418 -0.32553,-0.0911 -0.73894,-0.15949 -1.24023,-0.20508 -0.4948,-0.0456 -1.10678,-0.0683 -1.83594,-0.0684 -0.83334,1e-5 -1.53647,0.0293 -2.10938,0.0879 -0.56641,0.0586 -1.03516,0.15626 -1.40625,0.29297 -0.37109,0.13022 -0.65755,0.30926 -0.85937,0.53711 -0.20183,0.22137 -0.34831,0.4948 -0.43945,0.82031 -0.0911,0.32553 -0.14649,0.70965 -0.16602,1.15235 -0.013,0.4362 -0.0195,0.94076 -0.0195,1.51367 0,0.5599 0.007,1.05795 0.0195,1.49414 0.0195,0.42969 0.0749,0.8073 0.16602,1.13281 0.0911,0.31902 0.23762,0.5892 0.43945,0.81055 0.20182,0.22136 0.48828,0.40039 0.85937,0.53711 0.37109,0.13672 0.83984,0.23438 1.40625,0.29297 0.57291,0.0586 1.27604,0.0879 2.10938,0.0879 0.72916,0 1.34114,-0.026 1.83594,-0.0781 0.50129,-0.0521 0.9147,-0.12695 1.24023,-0.22461 0.32551,-0.0977 0.57616,-0.21809 0.75195,-0.36132 0.17577,-0.14323 0.30273,-0.30599 0.38086,-0.48828 0.0846,-0.1888 0.13346,-0.39388 0.14649,-0.61524 0.013,-0.22786 0.0195,-0.472 0.0195,-0.73242 l 1.875,0 c -10e-6,0.6836 -0.0912,1.27604 -0.27344,1.77734 -0.1823,0.50131 -0.50782,0.91472 -0.97656,1.24024 -0.46876,0.31901 -1.10678,0.55664 -1.91406,0.71289 -0.8073,0.15625 -1.83595,0.23437 -3.08594,0.23437 -0.93751,0 -1.75782,-0.0391 -2.46094,-0.11718 -0.70313,-0.0781 -1.31185,-0.20508 -1.82617,-0.38086 -0.50782,-0.1823 -0.93099,-0.41993 -1.26953,-0.71289 -0.33203,-0.29297 -0.59896,-0.6543 -0.80078,-1.08399 -0.19532,-0.42968 -0.33203,-0.93424 -0.41016,-1.51367 -0.0781,-0.58593 -0.11719,-1.25651 -0.11719,-2.01172"
       style="font-size:20px;font-variant:normal;font-weight:normal;writing-mode:lr-tb;fill:#000000;fill-opacity:1;fill-rule:nonzero;stroke:none;font-family:Michroma;-inkscape-font-specification:Michroma"
       id="path4195" />
    <path
       d="m 323.73294,169.42859 0,-6.34766 c -10e-6,-0.67707 -0.0521,-1.24673 -0.15625,-1.70898 -0.10418,-0.46874 -0.31251,-0.84635 -0.625,-1.13281 -0.31251,-0.28645 -0.75522,-0.49153 -1.32812,-0.61524 -0.57293,-0.1302 -1.32814,-0.1953 -2.26563,-0.19531 -1.01563,10e-6 -1.84896,0.0749 -2.5,0.22461 -0.64454,0.14324 -1.15235,0.34831 -1.52344,0.61523 -0.37109,0.26043 -0.62826,0.57618 -0.77148,0.94727 -0.13672,0.3711 -0.20508,0.78451 -0.20508,1.24023 l 0,6.97266 -1.875,0 0,-15 1.875,0 0,5.52734 c 0.13021,-0.30598 0.31575,-0.56965 0.55664,-0.79101 0.24088,-0.22135 0.51758,-0.41015 0.83008,-0.56641 0.31901,-0.15624 0.6608,-0.27994 1.02539,-0.37109 0.36458,-0.0976 0.73242,-0.17252 1.10352,-0.22461 0.37759,-0.0521 0.74543,-0.0879 1.10351,-0.10742 0.36458,-0.0195 0.69986,-0.0293 1.00586,-0.0293 0.83332,10e-6 1.54947,0.0521 2.14844,0.15625 0.60546,0.0977 1.11652,0.24741 1.5332,0.44922 0.42317,0.19532 0.76171,0.43946 1.01563,0.73242 0.25389,0.29298 0.4492,0.63477 0.58593,1.02539 0.14322,0.38412 0.23762,0.81707 0.28321,1.29883 0.0456,0.47527 0.0683,0.99284 0.0684,1.55273 l -0.01,6.34766 -1.875,0"
       style="font-size:20px;font-variant:normal;font-weight:normal;writing-mode:lr-tb;fill:#000000;fill-opacity:1;fill-rule:nonzero;stroke:none;font-family:Michroma;-inkscape-font-specification:Michroma"
       id="path4197" />
    <path
       d="m 80.437019,13.289917 c 0.885408,1.2e-5 1.627595,0.04884 2.226563,0.146484 0.598948,0.09767 1.087228,0.221366 1.464844,0.371094 0.384102,0.14324 0.673816,0.29949 0.86914,0.46875 0.201811,0.169281 0.348295,0.325531 0.439453,0.46875 l 0,-1.142578 1.875,0 0,15 -1.875,0 0,-5 c -0.09116,0.149741 -0.237642,0.309246 -0.439453,0.478516 -0.195324,0.169271 -0.485038,0.328776 -0.86914,0.478515 -0.377616,0.14323 -0.865896,0.263672 -1.464844,0.361328 -0.598968,0.09766 -1.341155,0.146485 -2.226563,0.146485 -1.250006,0 -2.311203,-0.09115 -3.183593,-0.273438 -0.8724,-0.188802 -1.582035,-0.507812 -2.128907,-0.957031 -0.546877,-0.449217 -0.944012,-1.054685 -1.191406,-1.816406 -0.247397,-0.761715 -0.371095,-1.718746 -0.371094,-2.871094 -1e-6,-1.152337 0.123697,-2.106112 0.371094,-2.861328 0.247394,-0.755199 0.644529,-1.354157 1.191406,-1.796875 0.546872,-0.442698 1.256507,-0.751942 2.128907,-0.927735 0.87239,-0.18228 1.933587,-0.273425 3.183593,-0.273437 m 0,1.5625 c -0.729173,10e-6 -1.360683,0.01954 -1.894531,0.05859 -0.527349,0.03907 -0.976567,0.113942 -1.347656,0.224609 -0.371098,0.110687 -0.673832,0.263681 -0.908203,0.458984 -0.227868,0.195322 -0.406905,0.452483 -0.53711,0.771485 -0.123701,0.319018 -0.208336,0.706388 -0.253906,1.162109 -0.03907,0.455736 -0.0586,0.9961 -0.05859,1.621094 -2e-6,0.625005 0.01953,1.168624 0.05859,1.630859 0.04557,0.462244 0.130205,0.859379 0.253906,1.191407 0.130205,0.332033 0.309242,0.602215 0.53711,0.810546 0.234371,0.208336 0.537105,0.374351 0.908203,0.498047 0.371089,0.1237 0.820307,0.208335 1.347656,0.253907 0.533848,0.04557 1.165358,0.06836 1.894531,0.06836 0.624992,1e-6 1.181632,-0.01302 1.669922,-0.03906 0.488272,-0.03255 0.917959,-0.10091 1.289063,-0.205078 0.371082,-0.104165 0.683582,-0.253904 0.9375,-0.449218 0.260404,-0.195311 0.471993,-0.458982 0.634765,-0.791016 0.162748,-0.332028 0.279936,-0.742184 0.351563,-1.230469 0.07811,-0.488277 0.117175,-1.077469 0.117187,-1.767578 -1.2e-5,-0.677077 -0.03908,-1.253248 -0.117187,-1.728516 -0.07163,-0.475252 -0.188815,-0.869132 -0.351563,-1.18164 -0.162772,-0.319002 -0.374361,-0.569652 -0.634765,-0.751953 -0.253918,-0.182282 -0.566418,-0.315746 -0.9375,-0.400391 -0.371104,-0.09114 -0.800791,-0.146474 -1.289063,-0.166016 -0.48829,-0.02603 -1.04493,-0.03905 -1.669922,-0.03906"
       style="font-size:20px;font-variant:normal;font-weight:normal;writing-mode:lr-tb;fill:#000000;fill-opacity:1;fill-rule:nonzero;stroke:none;font-family:Michroma;-inkscape-font-specification:Michroma"
       id="path4199" />
    <path
       d="m 91.679276,13.602417 0,6.25 c -4e-6,0.696619 0.05208,1.285811 0.15625,1.767578 0.104163,0.475263 0.312496,0.859377 0.625,1.152344 0.312495,0.29297 0.755203,0.504559 1.328125,0.634765 0.57291,0.13021 1.328118,0.195314 2.265625,0.195313 1.015616,1e-6 1.845693,-0.07487 2.490234,-0.224609 0.651031,-0.149738 1.162098,-0.361327 1.5332,-0.634766 0.37108,-0.273435 0.62499,-0.602211 0.76172,-0.986328 0.14322,-0.384111 0.21483,-0.810543 0.21485,-1.279297 l 0,-6.875 1.875,0 0,11.25 -1.875,0 0,-1.875 c -0.0912,0.201825 -0.24416,0.426434 -0.45899,0.673828 -0.21485,0.240886 -0.53712,0.465496 -0.966796,0.673828 -0.429698,0.208334 -0.986338,0.384115 -1.669922,0.527344 -0.677092,0.143229 -1.52019,0.214844 -2.529296,0.214844 -0.83985,0 -1.562506,-0.05208 -2.167969,-0.15625 -0.598963,-0.09766 -1.11003,-0.244141 -1.533203,-0.439453 -0.41667,-0.201823 -0.751956,-0.449218 -1.00586,-0.742188 -0.253908,-0.292967 -0.44922,-0.631509 -0.585937,-1.015625 -0.13672,-0.390622 -0.227866,-0.823565 -0.273438,-1.298828 -0.04557,-0.475257 -0.06836,-0.996089 -0.06836,-1.5625 l 0.0098,-6.25 1.875,0"
       style="font-size:20px;font-variant:normal;font-weight:normal;writing-mode:lr-tb;fill:#000000;fill-opacity:1;fill-rule:nonzero;stroke:none;font-family:Michroma;-inkscape-font-specification:Michroma"
       id="path4201" />
    <path
       d="m 116.61568,23.309448 c -0.0195,0.07813 -0.16602,0.273439 -0.43945,0.585938 -0.19532,0.234375 -0.45574,0.442709 -0.78125,0.625 -0.32553,0.175781 -0.76173,0.3125 -1.30859,0.410156 -0.54038,0.104166 -1.25327,0.15625 -2.13867,0.15625 -1.1784,0 -2.18425,-0.06185 -3.01758,-0.185547 -0.83334,-0.117187 -1.51368,-0.299479 -2.04102,-0.546875 -0.52734,-0.253905 -0.91471,-0.576171 -1.16211,-0.966797 -0.24088,-0.390623 -0.36133,-0.856117 -0.36133,-1.396484 0,-0.566403 0.0651,-1.044918 0.19532,-1.435547 0.13671,-0.397131 0.33203,-0.729162 0.58593,-0.996094 0.26042,-0.266921 0.57292,-0.475254 0.9375,-0.625 0.36458,-0.149733 0.778,-0.263665 1.24024,-0.341797 0.46874,-0.07812 0.97981,-0.126946 1.5332,-0.146484 0.55338,-0.01952 1.14257,-0.02929 1.76758,-0.0293 0.89192,7e-6 1.63736,0.03907 2.23633,0.117188 0.59895,0.07162 1.08723,0.166021 1.46484,0.283203 0.38411,0.110683 0.67382,0.231125 0.86914,0.361328 0.1953,0.130214 0.33528,0.250656 0.41992,0.361328 -1e-5,-0.729161 -0.0326,-1.350905 -0.0977,-1.865234 -0.0586,-0.514316 -0.15952,-0.944003 -0.30274,-1.289063 -0.13673,-0.345043 -0.31576,-0.61848 -0.53711,-0.820312 -0.22136,-0.208324 -0.4948,-0.364574 -0.82031,-0.46875 -0.31902,-0.104157 -0.69337,-0.169261 -1.12304,-0.195313 -0.4297,-0.03254 -0.92124,-0.04882 -1.47461,-0.04883 -0.85939,10e-6 -1.57228,0.0228 -2.13868,0.06836 -0.56641,0.03907 -1.01563,0.120453 -1.34765,0.244141 -0.33204,0.123707 -0.56641,0.296233 -0.70313,0.517578 -0.13672,0.214853 -0.20508,0.498056 -0.20508,0.849609 l -1.875,0 c 0,-0.592439 0.10417,-1.09374 0.3125,-1.503906 0.21485,-0.410146 0.56641,-0.742177 1.05469,-0.996094 0.49479,-0.260405 1.14258,-0.449207 1.94336,-0.566406 0.80078,-0.117176 1.7871,-0.175769 2.95899,-0.175781 1.14582,1.2e-5 2.11587,0.09441 2.91015,0.283203 0.79426,0.188813 1.43554,0.520844 1.92383,0.996094 0.49478,0.47527 0.8496,1.116545 1.06445,1.923828 0.22134,0.800789 0.33202,1.816413 0.33203,3.046875 l 0,5.3125 -1.875,0 0,-1.542969 m -4.35546,0.292969 c 0.82681,1e-6 1.51691,-0.03906 2.07031,-0.117188 0.55988,-0.07812 1.0091,-0.19531 1.34765,-0.351562 0.33853,-0.156248 0.57942,-0.35156 0.72266,-0.585938 0.14322,-0.234372 0.21483,-0.507809 0.21484,-0.820312 -1e-5,-0.312497 -0.0846,-0.576168 -0.2539,-0.791016 -0.16277,-0.22135 -0.43947,-0.400386 -0.83008,-0.537109 -0.38413,-0.136714 -0.89519,-0.23437 -1.5332,-0.292969 -0.63803,-0.0651 -1.42579,-0.09765 -2.36328,-0.09766 -0.93751,5e-6 -1.69597,0.01628 -2.27539,0.04883 -0.57293,0.03256 -1.01563,0.107427 -1.32813,0.224609 -0.3125,0.117192 -0.52409,0.289718 -0.63477,0.517579 -0.10417,0.227868 -0.15625,0.537113 -0.15625,0.927734 0,0.390628 0.0553,0.709638 0.16602,0.957031 0.11718,0.240888 0.35156,0.429689 0.70313,0.566406 0.35155,0.136721 0.85611,0.231122 1.51367,0.283204 0.66405,0.04557 1.54296,0.06836 2.63672,0.06836"
       style="font-size:20px;font-variant:normal;font-weight:normal;writing-mode:lr-tb;fill:#000000;fill-opacity:1;fill-rule:nonzero;stroke:none;font-family:Michroma;-inkscape-font-specification:Michroma"
       id="path4203" />
    <path
       d="m 132.22451,24.852417 0,-6.25 c -1e-5,-0.696608 -0.0521,-1.282545 -0.15625,-1.757813 -0.10418,-0.481762 -0.31251,-0.869131 -0.625,-1.162109 -0.31251,-0.292959 -0.75522,-0.504547 -1.32812,-0.634766 -0.57293,-0.130198 -1.32814,-0.195302 -2.26563,-0.195312 -1.01563,10e-6 -1.84896,0.07488 -2.5,0.224609 -0.64454,0.14975 -1.15235,0.361338 -1.52344,0.634766 -0.37109,0.273446 -0.62826,0.602222 -0.77148,0.986328 -0.13672,0.384122 -0.20508,0.810554 -0.20508,1.279297 l 0,6.875 -1.875,0 0,-11.25 1.875,0 0,1.875 c 0.13672,-0.319001 0.33203,-0.592438 0.58594,-0.820313 0.2539,-0.234364 0.54036,-0.432932 0.85937,-0.595703 0.31901,-0.162749 0.66406,-0.292957 1.03516,-0.390625 0.37109,-0.104155 0.74218,-0.18228 1.11328,-0.234375 0.37109,-0.05858 0.72916,-0.09764 1.07422,-0.117187 0.35155,-0.01952 0.67056,-0.02928 0.95703,-0.0293 0.83332,1.2e-5 1.54947,0.05209 2.14844,0.15625 0.60545,0.104178 1.11652,0.257173 1.5332,0.458984 0.42317,0.201834 0.76171,0.452485 1.01563,0.751953 0.25389,0.29949 0.4492,0.647796 0.58593,1.044922 0.14322,0.390634 0.23762,0.830087 0.28321,1.31836 0.0455,0.481778 0.0683,1.009121 0.0684,1.582031 l -0.01,6.25 -1.875,0"
       style="font-size:20px;font-variant:normal;font-weight:normal;writing-mode:lr-tb;fill:#000000;fill-opacity:1;fill-rule:nonzero;stroke:none;font-family:Michroma;-inkscape-font-specification:Michroma"
       id="path4205" />
    <path
       d="m 147.53201,19.852417 c -1e-5,0.957035 -0.0781,1.757816 -0.23437,2.402344 -0.15626,0.638023 -0.41994,1.14909 -0.79102,1.533203 -0.36459,0.384115 -0.84636,0.657552 -1.44531,0.820312 -0.59897,0.162761 -1.3379,0.244141 -2.2168,0.244141 -0.85287,0 -1.56901,-0.0651 -2.14843,-0.195313 -0.57944,-0.130208 -1.04819,-0.351561 -1.40625,-0.664062 -0.35808,-0.312499 -0.61524,-0.729165 -0.77149,-1.25 -0.15625,-0.520831 -0.23438,-1.171872 -0.23437,-1.953125 l 0,-5.644531 -2.31446,0 0,-1.542969 2.31446,0 0,-3.076172 1.875,0 0,3.076172 7.06054,0 0,1.542969 -7.06054,0 0,5.644531 c -1e-5,0.625003 0.0456,1.106774 0.13671,1.445312 0.0977,0.338544 0.25065,0.58594 0.45899,0.742188 0.20833,0.156252 0.48176,0.247397 0.82031,0.273437 0.34505,0.02604 0.76497,0.03907 1.25977,0.03906 0.39061,2e-6 0.73892,-0.0065 1.04492,-0.01953 0.31249,-0.01302 0.58267,-0.05208 0.81055,-0.117188 0.23436,-0.07161 0.43293,-0.175779 0.5957,-0.3125 0.16275,-0.143227 0.29296,-0.341794 0.39062,-0.595703 0.10416,-0.253903 0.17903,-0.572913 0.22461,-0.957031 0.0456,-0.390621 0.0684,-0.869136 0.0684,-1.435547 l 1.5625,0"
       style="font-size:20px;font-variant:normal;font-weight:normal;writing-mode:lr-tb;fill:#000000;fill-opacity:1;fill-rule:nonzero;stroke:none;font-family:Michroma;-inkscape-font-specification:Michroma"
       id="path4207" />
    <path
       d="m 150.6395,13.602417 1.875,0 0,11.25 -1.875,0 0,-11.25 m 1.875,-1.875 -1.875,0 0,-1.875 1.875,0 0,1.875"
       style="font-size:20px;font-variant:normal;font-weight:normal;writing-mode:lr-tb;fill:#000000;fill-opacity:1;fill-rule:nonzero;stroke:none;font-family:Michroma;-inkscape-font-specification:Michroma"
       id="path4209" />
    <path
       d="m 166.57201,19.852417 c -2e-5,0.957035 -0.0781,1.757816 -0.23438,2.402344 -0.15626,0.638023 -0.41993,1.14909 -0.79101,1.533203 -0.3646,0.384115 -0.84637,0.657552 -1.44532,0.820312 -0.59896,0.162761 -1.3379,0.244141 -2.21679,0.244141 -0.85288,0 -1.56902,-0.0651 -2.14844,-0.195313 -0.57943,-0.130208 -1.04818,-0.351561 -1.40625,-0.664062 -0.35808,-0.312499 -0.61524,-0.729165 -0.77149,-1.25 -0.15625,-0.520831 -0.23437,-1.171872 -0.23437,-1.953125 l 0,-5.644531 -2.31445,0 0,-1.542969 2.31445,0 0,-3.076172 1.875,0 0,3.076172 7.06055,0 0,1.542969 -7.06055,0 0,5.644531 c -1e-5,0.625003 0.0456,1.106774 0.13672,1.445312 0.0977,0.338544 0.25064,0.58594 0.45898,0.742188 0.20833,0.156252 0.48177,0.247397 0.82031,0.273437 0.34505,0.02604 0.76497,0.03907 1.25977,0.03906 0.39062,2e-6 0.73892,-0.0065 1.04492,-0.01953 0.31249,-0.01302 0.58268,-0.05208 0.81055,-0.117188 0.23436,-0.07161 0.43293,-0.175779 0.5957,-0.3125 0.16275,-0.143227 0.29296,-0.341794 0.39063,-0.595703 0.10415,-0.253903 0.17902,-0.572913 0.22461,-0.957031 0.0456,-0.390621 0.0684,-0.869136 0.0684,-1.435547 l 1.5625,0"
       style="font-size:20px;font-variant:normal;font-weight:normal;writing-mode:lr-tb;fill:#000000;fill-opacity:1;fill-rule:nonzero;stroke:none;font-family:Michroma;-inkscape-font-specification:Michroma"
       id="path4211" />
    <path
       d="m 179.61568,23.309448 c -0.0196,0.07813 -0.16603,0.273439 -0.43946,0.585938 -0.19532,0.234375 -0.45574,0.442709 -0.78125,0.625 -0.32553,0.175781 -0.76173,0.3125 -1.30859,0.410156 -0.54037,0.104166 -1.25326,0.15625 -2.13867,0.15625 -1.17839,0 -2.18425,-0.06185 -3.01758,-0.185547 -0.83334,-0.117187 -1.51368,-0.299479 -2.04102,-0.546875 -0.52734,-0.253905 -0.91471,-0.576171 -1.1621,-0.966797 -0.24089,-0.390623 -0.36133,-0.856117 -0.36133,-1.396484 0,-0.566403 0.0651,-1.044918 0.19531,-1.435547 0.13672,-0.397131 0.33203,-0.729162 0.58594,-0.996094 0.26041,-0.266921 0.57291,-0.475254 0.9375,-0.625 0.36458,-0.149733 0.77799,-0.263665 1.24023,-0.341797 0.46875,-0.07812 0.97981,-0.126946 1.5332,-0.146484 0.55338,-0.01952 1.14258,-0.02929 1.76758,-0.0293 0.89192,7e-6 1.63736,0.03907 2.23633,0.117188 0.59895,0.07162 1.08723,0.166021 1.46484,0.283203 0.38411,0.110683 0.67382,0.231125 0.86915,0.361328 0.1953,0.130214 0.33527,0.250656 0.41992,0.361328 -2e-5,-0.729161 -0.0326,-1.350905 -0.0977,-1.865234 -0.0586,-0.514316 -0.15952,-0.944003 -0.30273,-1.289063 -0.13673,-0.345043 -0.31577,-0.61848 -0.53711,-0.820312 -0.22137,-0.208324 -0.49481,-0.364574 -0.82032,-0.46875 -0.31902,-0.104157 -0.69336,-0.169261 -1.12304,-0.195313 -0.4297,-0.03254 -0.92124,-0.04882 -1.47461,-0.04883 -0.85938,10e-6 -1.57227,0.0228 -2.13867,0.06836 -0.56642,0.03907 -1.01563,0.120453 -1.34766,0.244141 -0.33204,0.123707 -0.56641,0.296233 -0.70312,0.517578 -0.13673,0.214853 -0.20509,0.498056 -0.20508,0.849609 l -1.875,0 c 0,-0.592439 0.10416,-1.09374 0.3125,-1.503906 0.21484,-0.410146 0.5664,-0.742177 1.05468,-0.996094 0.49479,-0.260405 1.14258,-0.449207 1.94336,-0.566406 0.80078,-0.117176 1.78711,-0.175769 2.95899,-0.175781 1.14582,1.2e-5 2.11587,0.09441 2.91015,0.283203 0.79426,0.188813 1.43554,0.520844 1.92383,0.996094 0.49478,0.47527 0.8496,1.116545 1.06446,1.923828 0.22134,0.800789 0.33201,1.816413 0.33203,3.046875 l 0,5.3125 -1.875,0 0,-1.542969 m -4.35547,0.292969 c 0.82681,1e-6 1.51692,-0.03906 2.07031,-0.117188 0.55989,-0.07812 1.0091,-0.19531 1.34766,-0.351562 0.33853,-0.156248 0.57941,-0.35156 0.72265,-0.585938 0.14322,-0.234372 0.21483,-0.507809 0.21485,-0.820312 -2e-5,-0.312497 -0.0847,-0.576168 -0.25391,-0.791016 -0.16277,-0.22135 -0.43946,-0.400386 -0.83008,-0.537109 -0.38412,-0.136714 -0.89519,-0.23437 -1.5332,-0.292969 -0.63803,-0.0651 -1.42579,-0.09765 -2.36328,-0.09766 -0.93751,5e-6 -1.69597,0.01628 -2.27539,0.04883 -0.57292,0.03256 -1.01563,0.107427 -1.32813,0.224609 -0.3125,0.117192 -0.52409,0.289718 -0.63476,0.517579 -0.10417,0.227868 -0.15626,0.537113 -0.15625,0.927734 -1e-5,0.390628 0.0553,0.709638 0.16601,0.957031 0.11719,0.240888 0.35156,0.429689 0.70313,0.566406 0.35156,0.136721 0.85611,0.231122 1.51367,0.283204 0.66406,0.04557 1.54296,0.06836 2.63672,0.06836"
       style="font-size:20px;font-variant:normal;font-weight:normal;writing-mode:lr-tb;fill:#000000;fill-opacity:1;fill-rule:nonzero;stroke:none;font-family:Michroma;-inkscape-font-specification:Michroma"
       id="path4213" />
    <path
       d="m 194.93201,19.852417 c -2e-5,0.957035 -0.0781,1.757816 -0.23438,2.402344 -0.15626,0.638023 -0.41993,1.14909 -0.79101,1.533203 -0.3646,0.384115 -0.84637,0.657552 -1.44532,0.820312 -0.59896,0.162761 -1.3379,0.244141 -2.21679,0.244141 -0.85287,0 -1.56902,-0.0651 -2.14844,-0.195313 -0.57943,-0.130208 -1.04818,-0.351561 -1.40625,-0.664062 -0.35808,-0.312499 -0.61524,-0.729165 -0.77149,-1.25 -0.15625,-0.520831 -0.23437,-1.171872 -0.23437,-1.953125 l 0,-5.644531 -2.31445,0 0,-1.542969 2.31445,0 0,-3.076172 1.875,0 0,3.076172 7.06055,0 0,1.542969 -7.06055,0 0,5.644531 c 0,0.625003 0.0456,1.106774 0.13672,1.445312 0.0976,0.338544 0.25064,0.58594 0.45898,0.742188 0.20833,0.156252 0.48177,0.247397 0.82032,0.273437 0.34504,0.02604 0.76496,0.03907 1.25976,0.03906 0.39062,2e-6 0.73893,-0.0065 1.04492,-0.01953 0.31249,-0.01302 0.58268,-0.05208 0.81055,-0.117188 0.23437,-0.07161 0.43293,-0.175779 0.5957,-0.3125 0.16275,-0.143227 0.29296,-0.341794 0.39063,-0.595703 0.10415,-0.253903 0.17902,-0.572913 0.22461,-0.957031 0.0456,-0.390621 0.0683,-0.869136 0.0684,-1.435547 l 1.5625,0"
       style="font-size:20px;font-variant:normal;font-weight:normal;writing-mode:lr-tb;fill:#000000;fill-opacity:1;fill-rule:nonzero;stroke:none;font-family:Michroma;-inkscape-font-specification:Michroma"
       id="path4215" />
    <path
       d="m 198.03951,13.602417 1.875,0 0,11.25 -1.875,0 0,-11.25 m 1.875,-1.875 -1.875,0 0,-1.875 1.875,0 0,1.875"
       style="font-size:20px;font-variant:normal;font-weight:normal;writing-mode:lr-tb;fill:#000000;fill-opacity:1;fill-rule:nonzero;stroke:none;font-family:Michroma;-inkscape-font-specification:Michroma"
       id="path4217" />
    <path
       d="m 208.347,24.852417 2.5,0 5.9375,-11.25 -2.1875,0 -5,10 -5,-10 -2.1875,0 5.9375,11.25"
       style="font-size:20px;font-variant:normal;font-weight:normal;writing-mode:lr-tb;fill:#000000;fill-opacity:1;fill-rule:nonzero;stroke:none;font-family:Michroma;-inkscape-font-specification:Michroma"
       id="path4219" />
    <path
       d="m 224.57701,25.067261 c -1.25001,0 -2.3112,-0.08464 -3.18359,-0.253907 -0.8724,-0.175781 -1.58204,-0.475259 -2.12891,-0.898437 -0.54688,-0.423176 -0.94401,-0.989581 -1.19141,-1.699219 -0.24739,-0.709632 -0.37109,-1.601558 -0.37109,-2.675781 0,-1.230462 0.1237,-2.246086 0.37109,-3.046875 0.2474,-0.807283 0.64453,-1.448558 1.19141,-1.923828 0.54687,-0.47525 1.25651,-0.807281 2.12891,-0.996094 0.87239,-0.18879 1.93358,-0.283191 3.18359,-0.283203 0.89192,1.2e-5 1.6634,0.06512 2.31445,0.195312 0.65755,0.13022 1.21744,0.319022 1.67969,0.566407 0.46874,0.247406 0.84634,0.546885 1.13281,0.898437 0.29296,0.351572 0.52082,0.722666 0.6836,1.113281 0.16926,0.384123 0.28319,0.836597 0.34179,1.357422 0.0651,0.520841 0.0976,1.07097 0.0977,1.650391 l -0.15625,0.625 -11.09375,0 c 0,0.859379 0.0846,1.565759 0.25391,2.119141 0.16926,0.546877 0.44921,0.947267 0.83984,1.201171 0.39062,0.253908 0.90494,0.416669 1.54297,0.488282 0.63801,0.06511 1.42577,0.09766 2.36328,0.09766 0.85937,1e-6 1.569,-0.02278 2.12891,-0.06836 0.56639,-0.05208 1.01561,-0.146483 1.34765,-0.283204 0.33202,-0.136717 0.56314,-0.325518 0.69336,-0.566406 0.13671,-0.247393 0.20507,-0.566403 0.20508,-0.957031 l 1.875,0 c -1e-5,0.605471 -0.10743,1.123049 -0.32226,1.552734 -0.20835,0.423179 -0.55666,0.76823 -1.04493,1.035157 -0.48829,0.260417 -1.13282,0.449218 -1.93359,0.566406 -0.79428,0.123698 -1.77735,0.185547 -2.94922,0.185547 m 0,-10.214844 c -0.62501,10e-6 -1.1849,0.01303 -1.67969,0.03906 -0.48828,0.02605 -0.91797,0.08465 -1.28906,0.175782 -0.36459,0.08465 -0.67709,0.211598 -0.9375,0.380859 -0.26042,0.16277 -0.47201,0.358082 -0.63476,0.585938 -0.15626,0.221362 -0.27345,0.537117 -0.35157,0.947265 -0.0716,0.403654 -0.10742,0.891934 -0.10742,1.464844 l 9.375,0 c -1e-5,-0.761712 -0.0814,-1.357414 -0.24414,-1.787109 -0.16277,-0.43619 -0.41993,-0.794262 -0.77148,-1.074219 -0.35158,-0.279939 -0.80405,-0.471996 -1.35743,-0.576172 -0.55339,-0.104157 -1.22071,-0.15624 -2.00195,-0.15625"
       style="font-size:20px;font-variant:normal;font-weight:normal;writing-mode:lr-tb;fill:#000000;fill-opacity:1;fill-rule:nonzero;stroke:none;font-family:Michroma;-inkscape-font-specification:Michroma"
       id="path4221" />
    <path
       d="m 238.29951,13.602417 1.875,0 0,11.25 -1.875,0 0,-11.25 m 1.875,-1.875 -1.875,0 0,-1.875 1.875,0 0,1.875"
       style="font-size:20px;font-variant:normal;font-weight:normal;writing-mode:lr-tb;fill:#000000;fill-opacity:1;fill-rule:nonzero;stroke:none;font-family:Michroma;-inkscape-font-specification:Michroma"
       id="path4223" />
    <path
       d="m 255.16951,24.852417 -1.875,0 0,-6.347656 c -1e-5,-0.677077 -0.0456,-1.246737 -0.13672,-1.708985 -0.0847,-0.468741 -0.26368,-0.846345 -0.53711,-1.132812 -0.26694,-0.286449 -0.64779,-0.491527 -1.14258,-0.615235 -0.48829,-0.130198 -1.13282,-0.195302 -1.93359,-0.195312 -0.87891,10e-6 -1.60157,0.07488 -2.16797,0.224609 -0.56641,0.143239 -1.01237,0.348317 -1.33789,0.615235 -0.32552,0.260425 -0.55339,0.57618 -0.68359,0.947265 -0.1237,0.371102 -0.18555,0.784513 -0.18555,1.240235 l 0,6.972656 -1.875,0 0,-11.25 1.875,0 0,1.777344 c 0.007,-0.01952 0.0358,-0.08463 0.0879,-0.195313 0.0521,-0.110667 0.14323,-0.240875 0.27344,-0.390625 0.13671,-0.15624 0.319,-0.322255 0.54687,-0.498047 0.23437,-0.17577 0.53385,-0.33853 0.89844,-0.488281 0.37109,-0.149728 0.81705,-0.273426 1.33789,-0.371094 0.52083,-0.09764 1.13932,-0.146472 1.85547,-0.146484 0.70312,1.2e-5 1.31184,0.04558 1.82617,0.136719 0.52082,0.08465 0.96353,0.214855 1.32813,0.390625 0.37108,0.169281 0.67056,0.384125 0.89843,0.644531 0.23437,0.253916 0.41991,0.546885 0.55664,0.878906 0.11067,-0.175771 0.28319,-0.380849 0.51758,-0.615234 0.23436,-0.234365 0.55989,-0.458974 0.97657,-0.673828 0.42316,-0.214833 0.9505,-0.393869 1.58203,-0.53711 0.63149,-0.149728 1.40297,-0.224597 2.31445,-0.224609 0.74868,1.2e-5 1.38995,0.05209 1.92383,0.15625 0.54034,0.09767 0.99607,0.247407 1.36719,0.449219 0.37107,0.195323 0.66729,0.439463 0.88867,0.732422 0.22784,0.292978 0.40037,0.634775 0.51758,1.02539 0.12367,0.384124 0.20505,0.817066 0.24414,1.298828 0.039,0.475268 0.0586,0.992846 0.0586,1.552735 l 0,6.347656 -1.875,0 0,-6.347656 c -2e-5,-0.677077 -0.0456,-1.246737 -0.13672,-1.708985 -0.0847,-0.468741 -0.26369,-0.846345 -0.53711,-1.132812 -0.26695,-0.286449 -0.6478,-0.491527 -1.14258,-0.615235 -0.4883,-0.130198 -1.13283,-0.195302 -1.93359,-0.195312 -0.87892,10e-6 -1.60158,0.07488 -2.16797,0.224609 -0.56642,0.143239 -1.01238,0.348317 -1.33789,0.615235 -0.32553,0.260425 -0.5534,0.57618 -0.68359,0.947265 -0.12371,0.371102 -0.18556,0.784513 -0.18555,1.240235 l 0,6.972656"
       style="font-size:20px;font-variant:normal;font-weight:normal;writing-mode:lr-tb;fill:#000000;fill-opacity:1;fill-rule:nonzero;stroke:none;font-family:Michroma;-inkscape-font-specification:Michroma"
       id="path4225" />
    <path
       d="m 278.85568,23.309448 c -0.0195,0.07813 -0.16603,0.273439 -0.43945,0.585938 -0.19533,0.234375 -0.45574,0.442709 -0.78125,0.625 -0.32553,0.175781 -0.76173,0.3125 -1.30859,0.410156 -0.54038,0.104166 -1.25327,0.15625 -2.13868,0.15625 -1.17839,0 -2.18425,-0.06185 -3.01757,-0.185547 -0.83334,-0.117187 -1.51368,-0.299479 -2.04102,-0.546875 -0.52735,-0.253905 -0.91472,-0.576171 -1.16211,-0.966797 -0.24089,-0.390623 -0.36133,-0.856117 -0.36133,-1.396484 0,-0.566403 0.0651,-1.044918 0.19531,-1.435547 0.13672,-0.397131 0.33203,-0.729162 0.58594,-0.996094 0.26042,-0.266921 0.57292,-0.475254 0.9375,-0.625 0.36458,-0.149733 0.77799,-0.263665 1.24024,-0.341797 0.46874,-0.07812 0.97981,-0.126946 1.5332,-0.146484 0.55338,-0.01952 1.14257,-0.02929 1.76758,-0.0293 0.89192,7e-6 1.63736,0.03907 2.23633,0.117188 0.59894,0.07162 1.08722,0.166021 1.46484,0.283203 0.3841,0.110683 0.67382,0.231125 0.86914,0.361328 0.1953,0.130214 0.33527,0.250656 0.41992,0.361328 -1e-5,-0.729161 -0.0326,-1.350905 -0.0976,-1.865234 -0.0586,-0.514316 -0.15952,-0.944003 -0.30274,-1.289063 -0.13673,-0.345043 -0.31577,-0.61848 -0.53711,-0.820312 -0.22136,-0.208324 -0.4948,-0.364574 -0.82031,-0.46875 -0.31902,-0.104157 -0.69337,-0.169261 -1.12305,-0.195313 -0.42969,-0.03254 -0.92123,-0.04882 -1.47461,-0.04883 -0.85938,10e-6 -1.57227,0.0228 -2.13867,0.06836 -0.56641,0.03907 -1.01563,0.120453 -1.34765,0.244141 -0.33204,0.123707 -0.56641,0.296233 -0.70313,0.517578 -0.13672,0.214853 -0.20508,0.498056 -0.20508,0.849609 l -1.875,0 c 0,-0.592439 0.10417,-1.09374 0.3125,-1.503906 0.21484,-0.410146 0.56641,-0.742177 1.05469,-0.996094 0.49479,-0.260405 1.14257,-0.449207 1.94336,-0.566406 0.80077,-0.117176 1.7871,-0.175769 2.95898,-0.175781 1.14583,1.2e-5 2.11588,0.09441 2.91016,0.283203 0.79426,0.188813 1.43553,0.520844 1.92383,0.996094 0.49478,0.47527 0.84959,1.116545 1.06445,1.923828 0.22134,0.800789 0.33202,1.816413 0.33203,3.046875 l 0,5.3125 -1.875,0 0,-1.542969 m -4.35547,0.292969 c 0.82682,1e-6 1.51692,-0.03906 2.07032,-0.117188 0.55988,-0.07812 1.0091,-0.19531 1.34765,-0.351562 0.33853,-0.156248 0.57942,-0.35156 0.72266,-0.585938 0.14322,-0.234372 0.21483,-0.507809 0.21484,-0.820312 -1e-5,-0.312497 -0.0847,-0.576168 -0.2539,-0.791016 -0.16278,-0.22135 -0.43947,-0.400386 -0.83008,-0.537109 -0.38413,-0.136714 -0.89519,-0.23437 -1.53321,-0.292969 -0.63803,-0.0651 -1.42578,-0.09765 -2.36328,-0.09766 -0.9375,5e-6 -1.69597,0.01628 -2.27539,0.04883 -0.57292,0.03256 -1.01563,0.107427 -1.32812,0.224609 -0.31251,0.117192 -0.52409,0.289718 -0.63477,0.517579 -0.10417,0.227868 -0.15625,0.537113 -0.15625,0.927734 0,0.390628 0.0553,0.709638 0.16602,0.957031 0.11718,0.240888 0.35156,0.429689 0.70312,0.566406 0.35156,0.136721 0.85612,0.231122 1.51367,0.283204 0.66406,0.04557 1.54297,0.06836 2.63672,0.06836"
       style="font-size:20px;font-variant:normal;font-weight:normal;writing-mode:lr-tb;fill:#000000;fill-opacity:1;fill-rule:nonzero;stroke:none;font-family:Michroma;-inkscape-font-specification:Michroma"
       id="path4227" />
    <path
       d="m 289.797,14.852417 c -0.72918,10e-6 -1.36069,0.0228 -1.89453,0.06836 -0.52735,0.04558 -0.97657,0.126963 -1.34766,0.244141 -0.3711,0.117197 -0.67383,0.279957 -0.9082,0.488281 -0.22787,0.208343 -0.40691,0.475269 -0.53711,0.800781 -0.1237,0.325529 -0.20834,0.719409 -0.25391,1.181641 -0.0391,0.455736 -0.0586,0.992845 -0.0586,1.611328 -1e-5,0.611984 0.0195,1.145838 0.0586,1.601563 0.0456,0.449222 0.13021,0.836591 0.25391,1.162109 0.1302,0.319013 0.30924,0.582685 0.53711,0.791016 0.23437,0.208335 0.5371,0.371095 0.9082,0.488281 0.37109,0.117189 0.82031,0.198569 1.34766,0.244141 0.53384,0.04557 1.16535,0.06836 1.89453,0.06836 0.62499,1e-6 1.18163,-0.01302 1.66992,-0.03906 0.48827,-0.03255 0.91796,-0.09765 1.28906,-0.195312 0.37108,-0.104165 0.68358,-0.250649 0.9375,-0.439453 0.26041,-0.195311 0.47199,-0.452472 0.63477,-0.771485 0.16274,-0.325517 0.27993,-0.725908 0.35156,-1.201171 0.0781,-0.481767 0.11717,-1.061193 0.11719,-1.738282 -2e-5,-0.677077 -0.0391,-1.256503 -0.11719,-1.738281 -0.0716,-0.481763 -0.18882,-0.882153 -0.35156,-1.201172 -0.16278,-0.325512 -0.37436,-0.582673 -0.63477,-0.771484 -0.25392,-0.188793 -0.56642,-0.332022 -0.9375,-0.429688 -0.3711,-0.09765 -0.80079,-0.159495 -1.28906,-0.185547 -0.48829,-0.02603 -1.04493,-0.03905 -1.66992,-0.03906 m 6.875,8.4375 c -2e-5,1.09375 -0.12372,2.001953 -0.3711,2.724609 -0.24741,0.722655 -0.64454,1.305336 -1.1914,1.748047 -0.54689,0.449216 -1.25653,0.761715 -2.12891,0.9375 -0.87241,0.175777 -1.9336,0.263668 -3.18359,0.263672 -1.17188,-4e-6 -2.15821,-0.05209 -2.95899,-0.15625 -0.79427,-0.10417 -1.43555,-0.270186 -1.92383,-0.498047 -0.48828,-0.221357 -0.83984,-0.51107 -1.05468,-0.86914 -0.20834,-0.351565 -0.3125,-0.781252 -0.3125,-1.289063 l 1.875,0 c -1e-5,0.253905 0.0651,0.462238 0.19531,0.625 0.13671,0.162758 0.37109,0.289711 0.70312,0.380859 0.33203,0.09114 0.77799,0.152993 1.3379,0.185547 0.5664,0.03906 1.27929,0.05859 2.13867,0.05859 0.93749,-2e-6 1.72525,-0.03581 2.36328,-0.107422 0.63801,-0.06511 1.15233,-0.224611 1.54297,-0.478515 0.39061,-0.253908 0.67056,-0.638023 0.83984,-1.152344 0.16926,-0.514323 0.25389,-1.201172 0.25391,-2.060547 -0.0912,0.156251 -0.23765,0.325522 -0.43946,0.507812 -0.19532,0.182293 -0.48503,0.351563 -0.86914,0.507813 -0.37761,0.15625 -0.86589,0.286458 -1.46484,0.390625 -0.59897,0.104166 -1.34115,0.15625 -2.22656,0.15625 -1.25001,0 -2.31121,-0.0944 -3.1836,-0.283203 -0.8724,-0.182292 -1.58203,-0.498047 -2.1289,-0.947266 -0.54688,-0.449217 -0.94401,-1.054685 -1.19141,-1.816406 -0.2474,-0.761715 -0.37109,-1.718746 -0.37109,-2.871094 0,-1.171868 0.12369,-2.141919 0.37109,-2.910156 0.2474,-0.76822 0.64453,-1.376943 1.19141,-1.826172 0.54687,-0.449208 1.2565,-0.764963 2.1289,-0.947266 0.87239,-0.18228 1.93359,-0.273425 3.1836,-0.273437 0.88541,1.2e-5 1.62759,0.04558 2.22656,0.136719 0.59895,0.09116 1.08723,0.205089 1.46484,0.341797 0.38411,0.136729 0.67382,0.286469 0.86914,0.449218 0.20181,0.156261 0.3483,0.29949 0.43946,0.429688 l 0,-1.044922 1.875,0 0,9.6875"
       style="font-size:20px;font-variant:normal;font-weight:normal;writing-mode:lr-tb;fill:#000000;fill-opacity:1;fill-rule:nonzero;stroke:none;font-family:Michroma;-inkscape-font-specification:Michroma"
       id="path4229" />
    <path
       d="m 305.71701,25.067261 c -1.25001,0 -2.3112,-0.08464 -3.18359,-0.253907 -0.8724,-0.175781 -1.58204,-0.475259 -2.12891,-0.898437 -0.54688,-0.423176 -0.94401,-0.989581 -1.19141,-1.699219 -0.24739,-0.709632 -0.37109,-1.601558 -0.37109,-2.675781 0,-1.230462 0.1237,-2.246086 0.37109,-3.046875 0.2474,-0.807283 0.64453,-1.448558 1.19141,-1.923828 0.54687,-0.47525 1.25651,-0.807281 2.12891,-0.996094 0.87239,-0.18879 1.93358,-0.283191 3.18359,-0.283203 0.89192,1.2e-5 1.6634,0.06512 2.31445,0.195312 0.65754,0.13022 1.21744,0.319022 1.67969,0.566407 0.46874,0.247406 0.84634,0.546885 1.13281,0.898437 0.29296,0.351572 0.52082,0.722666 0.6836,1.113281 0.16925,0.384123 0.28319,0.836597 0.34179,1.357422 0.0651,0.520841 0.0976,1.07097 0.0977,1.650391 l -0.15625,0.625 -11.09375,0 c 0,0.859379 0.0846,1.565759 0.25391,2.119141 0.16926,0.546877 0.44921,0.947267 0.83984,1.201171 0.39062,0.253908 0.90494,0.416669 1.54297,0.488282 0.63801,0.06511 1.42577,0.09766 2.36328,0.09766 0.85937,1e-6 1.569,-0.02278 2.12891,-0.06836 0.56639,-0.05208 1.01561,-0.146483 1.34765,-0.283204 0.33202,-0.136717 0.56314,-0.325518 0.69336,-0.566406 0.13671,-0.247393 0.20507,-0.566403 0.20508,-0.957031 l 1.875,0 c -1e-5,0.605471 -0.10744,1.123049 -0.32227,1.552734 -0.20834,0.423179 -0.55665,0.76823 -1.04492,1.035157 -0.48829,0.260417 -1.13282,0.449218 -1.93359,0.566406 -0.79428,0.123698 -1.77735,0.185547 -2.94922,0.185547 m 0,-10.214844 c -0.62501,10e-6 -1.1849,0.01303 -1.67969,0.03906 -0.48828,0.02605 -0.91797,0.08465 -1.28906,0.175782 -0.36459,0.08465 -0.67709,0.211598 -0.9375,0.380859 -0.26042,0.16277 -0.47201,0.358082 -0.63477,0.585938 -0.15625,0.221362 -0.27344,0.537117 -0.35156,0.947265 -0.0716,0.403654 -0.10742,0.891934 -0.10742,1.464844 l 9.375,0 c -1e-5,-0.761712 -0.0814,-1.357414 -0.24414,-1.787109 -0.16277,-0.43619 -0.41993,-0.794262 -0.77148,-1.074219 -0.35158,-0.279939 -0.80405,-0.471996 -1.35743,-0.576172 -0.55339,-0.104157 -1.22071,-0.15624 -2.00195,-0.15625"
       style="font-size:20px;font-variant:normal;font-weight:normal;writing-mode:lr-tb;fill:#000000;fill-opacity:1;fill-rule:nonzero;stroke:none;font-family:Michroma;-inkscape-font-specification:Michroma"
       id="path4231" />
    <path
       d="m 319.43948,13.602417 1.875,0 0,11.25 -1.875,0 0,-11.25 m 1.875,-1.875 -1.875,0 0,-1.875 1.875,0 0,1.875"
       style="font-size:20px;font-variant:normal;font-weight:normal;writing-mode:lr-tb;fill:#000000;fill-opacity:1;fill-rule:nonzero;stroke:none;font-family:Michroma;-inkscape-font-specification:Michroma"
       id="path4233" />
    <path
       d="m 335.68451,24.852417 0,-6.25 c -10e-6,-0.696608 -0.0521,-1.282545 -0.15625,-1.757813 -0.10418,-0.481762 -0.31251,-0.869131 -0.625,-1.162109 -0.31251,-0.292959 -0.75522,-0.504547 -1.32813,-0.634766 -0.57292,-0.130198 -1.32813,-0.195302 -2.26562,-0.195312 -1.01563,10e-6 -1.84897,0.07488 -2.5,0.224609 -0.64454,0.14975 -1.15235,0.361338 -1.52344,0.634766 -0.3711,0.273446 -0.62826,0.602222 -0.77148,0.986328 -0.13672,0.384122 -0.20508,0.810554 -0.20508,1.279297 l 0,6.875 -1.875,0 0,-11.25 1.875,0 0,1.875 c 0.13671,-0.319001 0.33203,-0.592438 0.58594,-0.820313 0.2539,-0.234364 0.54036,-0.432932 0.85937,-0.595703 0.31901,-0.162749 0.66406,-0.292957 1.03516,-0.390625 0.37109,-0.104155 0.74218,-0.18228 1.11328,-0.234375 0.37109,-0.05858 0.72916,-0.09764 1.07422,-0.117187 0.35155,-0.01952 0.67056,-0.02928 0.95703,-0.0293 0.83332,1.2e-5 1.54947,0.05209 2.14844,0.15625 0.60545,0.104178 1.11652,0.257173 1.5332,0.458984 0.42316,0.201834 0.76171,0.452485 1.01562,0.751953 0.2539,0.29949 0.44921,0.647796 0.58594,1.044922 0.14322,0.390634 0.23762,0.830087 0.28321,1.31836 0.0455,0.481778 0.0683,1.009121 0.0684,1.582031 l -0.01,6.25 -1.875,0"
       style="font-size:20px;font-variant:normal;font-weight:normal;writing-mode:lr-tb;fill:#000000;fill-opacity:1;fill-rule:nonzero;stroke:none;font-family:Michroma;-inkscape-font-specification:Michroma"
       id="path4235" />
    <path
       d="m 343.78452,15.028198 0,9.824219 -1.875,0 0,-9.824219 -1.875,0 0,-1.425781 1.875,0 0,-0.09766 c -10e-6,-0.761707 0.0846,-1.396472 0.2539,-1.904297 0.16927,-0.507799 0.44922,-0.9147 0.83985,-1.220703 0.39062,-0.305975 0.90494,-0.5208186 1.54296,-0.6445315 0.64453,-0.1301931 1.43554,-0.1952972 2.37305,-0.1953125 l 2.17774,0 0,1.5625 -2.1875,0 c -0.59246,1.4e-5 -1.08725,0.01303 -1.48438,0.03906 -0.39714,0.02606 -0.71941,0.113946 -0.9668,0.263672 -0.24089,0.149753 -0.41341,0.387383 -0.51757,0.712891 -0.10418,0.325533 -0.15626,0.787772 -0.15625,1.386719 l 0,0.09766 5.3125,0 0,1.425781 -5.3125,0"
       style="font-size:20px;font-variant:normal;font-weight:normal;writing-mode:lr-tb;fill:#000000;fill-opacity:1;fill-rule:nonzero;stroke:none;font-family:Michroma;-inkscape-font-specification:Michroma"
       id="path4237" />
    <path
       d="m 350.022,19.149292 c 0,-1.152337 0.1237,-2.106112 0.3711,-2.861328 0.24739,-0.755199 0.64453,-1.354157 1.1914,-1.796875 0.54688,-0.442698 1.25651,-0.751942 2.12891,-0.927735 0.87239,-0.18228 1.93359,-0.273425 3.18359,-0.273437 1.24999,1.2e-5 2.31119,0.09116 3.1836,0.273437 0.87238,0.175793 1.58202,0.485037 2.1289,0.927735 0.54686,0.442718 0.944,1.041676 1.19141,1.796875 0.24738,0.755216 0.37108,1.708991 0.37109,2.861328 -10e-6,1.152348 -0.12371,2.109379 -0.37109,2.871094 -0.24741,0.761721 -0.64455,1.367189 -1.19141,1.816406 -0.54688,0.449219 -1.25652,0.768229 -2.1289,0.957031 -0.87241,0.182292 -1.93361,0.273438 -3.1836,0.273438 -1.25,0 -2.3112,-0.09115 -3.18359,-0.273438 -0.8724,-0.188802 -1.58203,-0.507812 -2.12891,-0.957031 -0.54687,-0.449217 -0.94401,-1.054685 -1.1914,-1.816406 -0.2474,-0.761715 -0.3711,-1.718746 -0.3711,-2.871094 m 1.875,0 c 0,0.625005 0.0228,1.168624 0.0684,1.630859 0.0456,0.462244 0.13021,0.859379 0.25391,1.191407 0.1302,0.332033 0.30924,0.602215 0.53711,0.810546 0.22786,0.208336 0.52734,0.374351 0.89844,0.498047 0.37108,0.1237 0.8203,0.208335 1.34765,0.253907 0.53385,0.04557 1.16536,0.06836 1.89453,0.06836 0.62499,1e-6 1.18163,-0.01302 1.66993,-0.03906 0.49478,-0.03255 0.92446,-0.10091 1.28906,-0.205078 0.37108,-0.104165 0.68684,-0.250649 0.94726,-0.439453 0.26041,-0.19531 0.46874,-0.458982 0.625,-0.791015 0.16275,-0.332029 0.27994,-0.738929 0.35157,-1.220704 0.0781,-0.488276 0.11717,-1.074213 0.11718,-1.757812 -10e-6,-0.670567 -0.0391,-1.240227 -0.11718,-1.708984 -0.0716,-0.475253 -0.18882,-0.872388 -0.35157,-1.191407 -0.15626,-0.319001 -0.36459,-0.569652 -0.625,-0.751953 -0.26042,-0.188792 -0.57618,-0.328766 -0.94726,-0.419922 -0.3646,-0.09765 -0.79428,-0.159495 -1.28906,-0.185547 -0.4883,-0.02603 -1.04494,-0.03905 -1.66993,-0.03906 -0.625,10e-6 -1.1849,0.01303 -1.67968,0.03906 -0.48829,0.02605 -0.91798,0.0879 -1.28907,0.185547 -0.36458,0.09116 -0.67708,0.23113 -0.9375,0.419922 -0.26042,0.182301 -0.47201,0.432952 -0.63476,0.751953 -0.15626,0.319019 -0.27344,0.716154 -0.35156,1.191407 -0.0716,0.468757 -0.10743,1.038417 -0.10743,1.708984"
       style="font-size:20px;font-variant:normal;font-weight:normal;writing-mode:lr-tb;fill:#000000;fill-opacity:1;fill-rule:nonzero;stroke:none;font-family:Michroma;-inkscape-font-specification:Michroma"
       id="path4239" />
    <path
       d="m 375.642,17.264526 c -10e-6,-0.468742 -0.0358,-0.856111 -0.10742,-1.162109 -0.0651,-0.312491 -0.22462,-0.559887 -0.47852,-0.742188 -0.25392,-0.188792 -0.63152,-0.319 -1.13281,-0.390625 -0.4948,-0.07812 -1.17188,-0.117177 -2.03125,-0.117187 -0.83985,10e-6 -1.52344,0.07488 -2.05078,0.224609 -0.52735,0.143239 -0.94076,0.348317 -1.24024,0.615235 -0.29948,0.266936 -0.50456,0.585946 -0.61523,0.957031 -0.10417,0.371102 -0.15625,0.784513 -0.15625,1.240234 l 0,6.962891 -1.875,0 0,-11.25 1.875,0 0,1.787109 c 0.0651,-0.201813 0.18554,-0.423167 0.36133,-0.664062 0.17577,-0.247386 0.4427,-0.47525 0.80078,-0.683594 0.35807,-0.214833 0.82031,-0.393869 1.38672,-0.537109 0.57291,-0.143218 1.2858,-0.214832 2.13867,-0.214844 0.97655,1.2e-5 1.77082,0.0879 2.38281,0.263672 0.61197,0.169282 1.08723,0.423188 1.42578,0.761719 0.34504,0.332041 0.57616,0.745452 0.69336,1.240234 0.12369,0.4948 0.18554,1.064461 0.18555,1.708984 l -1.5625,0"
       style="font-size:20px;font-variant:normal;font-weight:normal;writing-mode:lr-tb;fill:#000000;fill-opacity:1;fill-rule:nonzero;stroke:none;font-family:Michroma;-inkscape-font-specification:Michroma"
       id="path4241" />
    <path
       d="m 390.3295,24.852417 -1.875,0 0,-6.347656 c -10e-6,-0.677077 -0.0456,-1.246737 -0.13672,-1.708985 -0.0847,-0.468741 -0.26368,-0.846345 -0.53711,-1.132812 -0.26694,-0.286449 -0.6478,-0.491527 -1.14258,-0.615235 -0.48829,-0.130198 -1.13282,-0.195302 -1.93359,-0.195312 -0.87891,10e-6 -1.60157,0.07488 -2.16797,0.224609 -0.56641,0.143239 -1.01237,0.348317 -1.33789,0.615235 -0.32553,0.260425 -0.55339,0.57618 -0.68359,0.947265 -0.12371,0.371102 -0.18555,0.784513 -0.18555,1.240235 l 0,6.972656 -1.875,0 0,-11.25 1.875,0 0,1.777344 c 0.007,-0.01952 0.0358,-0.08463 0.0879,-0.195313 0.0521,-0.110667 0.14322,-0.240875 0.27344,-0.390625 0.13671,-0.15624 0.319,-0.322255 0.54687,-0.498047 0.23437,-0.17577 0.53385,-0.33853 0.89844,-0.488281 0.37109,-0.149728 0.81705,-0.273426 1.33789,-0.371094 0.52083,-0.09764 1.13932,-0.146472 1.85547,-0.146484 0.70311,1.2e-5 1.31184,0.04558 1.82617,0.136719 0.52082,0.08465 0.96353,0.214855 1.32813,0.390625 0.37108,0.169281 0.67056,0.384125 0.89843,0.644531 0.23437,0.253916 0.41991,0.546885 0.55664,0.878906 0.11067,-0.175771 0.28319,-0.380849 0.51758,-0.615234 0.23436,-0.234365 0.55988,-0.458974 0.97656,-0.673828 0.42317,-0.214833 0.95051,-0.393869 1.58204,-0.53711 0.63149,-0.149728 1.40297,-0.224597 2.31445,-0.224609 0.74868,1.2e-5 1.38995,0.05209 1.92383,0.15625 0.54034,0.09767 0.99607,0.247407 1.36718,0.449219 0.37108,0.195323 0.6673,0.439463 0.88868,0.732422 0.22784,0.292978 0.40036,0.634775 0.51757,1.02539 0.12368,0.384124 0.20506,0.817066 0.24414,1.298828 0.039,0.475268 0.0586,0.992846 0.0586,1.552735 l 0,6.347656 -1.875,0 0,-6.347656 c -2e-5,-0.677077 -0.0456,-1.246737 -0.13672,-1.708985 -0.0847,-0.468741 -0.26369,-0.846345 -0.53711,-1.132812 -0.26695,-0.286449 -0.64781,-0.491527 -1.14258,-0.615235 -0.4883,-0.130198 -1.13283,-0.195302 -1.93359,-0.195312 -0.87892,10e-6 -1.60158,0.07488 -2.16797,0.224609 -0.56642,0.143239 -1.01238,0.348317 -1.33789,0.615235 -0.32554,0.260425 -0.5534,0.57618 -0.68359,0.947265 -0.12372,0.371102 -0.18556,0.784513 -0.18555,1.240235 l 0,6.972656"
       style="font-size:20px;font-variant:normal;font-weight:normal;writing-mode:lr-tb;fill:#000000;fill-opacity:1;fill-rule:nonzero;stroke:none;font-family:Michroma;-inkscape-font-specification:Michroma"
       id="path4243" />
    <path
       d="m 414.01569,23.309448 c -0.0195,0.07813 -0.16603,0.273439 -0.43946,0.585938 -0.19532,0.234375 -0.45574,0.442709 -0.78125,0.625 -0.32553,0.175781 -0.76173,0.3125 -1.30859,0.410156 -0.54037,0.104166 -1.25326,0.15625 -2.13867,0.15625 -1.17839,0 -2.18425,-0.06185 -3.01758,-0.185547 -0.83334,-0.117187 -1.51368,-0.299479 -2.04102,-0.546875 -0.52734,-0.253905 -0.91471,-0.576171 -1.16211,-0.966797 -0.24088,-0.390623 -0.36133,-0.856117 -0.36132,-1.396484 -1e-5,-0.566403 0.0651,-1.044918 0.19531,-1.435547 0.13672,-0.397131 0.33203,-0.729162 0.58594,-0.996094 0.26041,-0.266921 0.57291,-0.475254 0.9375,-0.625 0.36458,-0.149733 0.77799,-0.263665 1.24023,-0.341797 0.46875,-0.07812 0.97981,-0.126946 1.5332,-0.146484 0.55338,-0.01952 1.14257,-0.02929 1.76758,-0.0293 0.89192,7e-6 1.63736,0.03907 2.23633,0.117188 0.59895,0.07162 1.08723,0.166021 1.46484,0.283203 0.38411,0.110683 0.67382,0.231125 0.86914,0.361328 0.1953,0.130214 0.33528,0.250656 0.41993,0.361328 -2e-5,-0.729161 -0.0326,-1.350905 -0.0977,-1.865234 -0.0586,-0.514316 -0.15952,-0.944003 -0.30273,-1.289063 -0.13674,-0.345043 -0.31577,-0.61848 -0.53711,-0.820312 -0.22137,-0.208324 -0.49481,-0.364574 -0.82032,-0.46875 -0.31902,-0.104157 -0.69337,-0.169261 -1.12304,-0.195313 -0.4297,-0.03254 -0.92124,-0.04882 -1.47461,-0.04883 -0.85938,10e-6 -1.57227,0.0228 -2.13867,0.06836 -0.56642,0.03907 -1.01563,0.120453 -1.34766,0.244141 -0.33204,0.123707 -0.56641,0.296233 -0.70313,0.517578 -0.13672,0.214853 -0.20508,0.498056 -0.20507,0.849609 l -1.875,0 c -1e-5,-0.592439 0.10416,-1.09374 0.3125,-1.503906 0.21484,-0.410146 0.5664,-0.742177 1.05468,-0.996094 0.49479,-0.260405 1.14258,-0.449207 1.94336,-0.566406 0.80078,-0.117176 1.78711,-0.175769 2.95899,-0.175781 1.14582,1.2e-5 2.11587,0.09441 2.91015,0.283203 0.79426,0.188813 1.43554,0.520844 1.92383,0.996094 0.49478,0.47527 0.8496,1.116545 1.06445,1.923828 0.22134,0.800789 0.33202,1.816413 0.33204,3.046875 l 0,5.3125 -1.875,0 0,-1.542969 m -4.35547,0.292969 c 0.82681,1e-6 1.51691,-0.03906 2.07031,-0.117188 0.55988,-0.07812 1.0091,-0.19531 1.34766,-0.351562 0.33853,-0.156248 0.57941,-0.35156 0.72265,-0.585938 0.14322,-0.234372 0.21483,-0.507809 0.21485,-0.820312 -2e-5,-0.312497 -0.0847,-0.576168 -0.25391,-0.791016 -0.16277,-0.22135 -0.43947,-0.400386 -0.83008,-0.537109 -0.38412,-0.136714 -0.89519,-0.23437 -1.5332,-0.292969 -0.63803,-0.0651 -1.42579,-0.09765 -2.36328,-0.09766 -0.93751,5e-6 -1.69597,0.01628 -2.27539,0.04883 -0.57292,0.03256 -1.01563,0.107427 -1.32813,0.224609 -0.3125,0.117192 -0.52409,0.289718 -0.63476,0.517579 -0.10417,0.227868 -0.15626,0.537113 -0.15625,0.927734 -1e-5,0.390628 0.0553,0.709638 0.16601,0.957031 0.11719,0.240888 0.35156,0.429689 0.70313,0.566406 0.35155,0.136721 0.85611,0.231122 1.51367,0.283204 0.66405,0.04557 1.54296,0.06836 2.63672,0.06836"
       style="font-size:20px;font-variant:normal;font-weight:normal;writing-mode:lr-tb;fill:#000000;fill-opacity:1;fill-rule:nonzero;stroke:none;font-family:Michroma;-inkscape-font-specification:Michroma"
       id="path4245" />
    <path
       d="m 429.332,19.852417 c -10e-6,0.957035 -0.0781,1.757816 -0.23437,2.402344 -0.15627,0.638023 -0.41994,1.14909 -0.79102,1.533203 -0.36459,0.384115 -0.84636,0.657552 -1.44531,0.820312 -0.59897,0.162761 -1.3379,0.244141 -2.2168,0.244141 -0.85287,0 -1.56902,-0.0651 -2.14844,-0.195313 -0.57943,-0.130208 -1.04818,-0.351561 -1.40625,-0.664062 -0.35807,-0.312499 -0.61523,-0.729165 -0.77148,-1.25 -0.15625,-0.520831 -0.23438,-1.171872 -0.23438,-1.953125 l 0,-5.644531 -2.31445,0 0,-1.542969 2.31445,0 0,-3.076172 1.875,0 0,3.076172 7.06055,0 0,1.542969 -7.06055,0 0,5.644531 c 0,0.625003 0.0456,1.106774 0.13672,1.445312 0.0977,0.338544 0.25065,0.58594 0.45899,0.742188 0.20832,0.156252 0.48176,0.247397 0.82031,0.273437 0.34504,0.02604 0.76497,0.03907 1.25977,0.03906 0.39061,2e-6 0.73892,-0.0065 1.04492,-0.01953 0.31249,-0.01302 0.58267,-0.05208 0.81054,-0.117188 0.23437,-0.07161 0.43294,-0.175779 0.59571,-0.3125 0.16275,-0.143227 0.29296,-0.341794 0.39062,-0.595703 0.10416,-0.253903 0.17903,-0.572913 0.22461,-0.957031 0.0456,-0.390621 0.0684,-0.869136 0.0684,-1.435547 l 1.5625,0"
       style="font-size:20px;font-variant:normal;font-weight:normal;writing-mode:lr-tb;fill:#000000;fill-opacity:1;fill-rule:nonzero;stroke:none;font-family:Michroma;-inkscape-font-specification:Michroma"
       id="path4247" />
    <path
       d="m 432.43951,13.602417 1.875,0 0,11.25 -1.875,0 0,-11.25 m 1.875,-1.875 -1.875,0 0,-1.875 1.875,0 0,1.875"
       style="font-size:20px;font-variant:normal;font-weight:normal;writing-mode:lr-tb;fill:#000000;fill-opacity:1;fill-rule:nonzero;stroke:none;font-family:Michroma;-inkscape-font-specification:Michroma"
       id="path4249" />
    <path
       d="m 437.12204,19.246948 c 0,-0.781243 0.0391,-1.471347 0.11719,-2.070312 0.0781,-0.59895 0.21484,-1.119783 0.41015,-1.5625 0.20182,-0.442699 0.46875,-0.810537 0.80078,-1.103516 0.33854,-0.299468 0.76172,-0.540354 1.26954,-0.722656 0.51431,-0.182281 1.12304,-0.312489 1.82617,-0.390625 0.70312,-0.07811 1.52343,-0.117176 2.46094,-0.117188 1.24999,1.2e-5 2.27863,0.07814 3.08593,0.234375 0.80728,0.149751 1.4453,0.384126 1.91407,0.703125 0.46873,0.312511 0.79425,0.712901 0.97656,1.201172 0.18228,0.48178 0.27342,1.057951 0.27344,1.728516 l -1.875,0 c -2e-5,-0.240878 -0.007,-0.465487 -0.0195,-0.673828 -0.013,-0.208325 -0.0619,-0.397127 -0.14648,-0.566407 -0.0781,-0.169261 -0.20509,-0.319001 -0.38086,-0.449218 -0.17579,-0.136709 -0.42644,-0.250642 -0.75195,-0.341797 -0.32553,-0.09114 -0.73895,-0.159495 -1.24024,-0.205078 -0.4948,-0.04556 -1.10678,-0.06835 -1.83593,-0.06836 -0.83334,10e-6 -1.53647,0.02931 -2.10938,0.08789 -0.56641,0.0586 -1.03516,0.15626 -1.40625,0.292969 -0.3711,0.130218 -0.65756,0.309254 -0.85937,0.537109 -0.20183,0.221363 -0.34831,0.4948 -0.43946,0.820313 -0.0911,0.325528 -0.14648,0.709643 -0.16601,1.152343 -0.013,0.436205 -0.0195,0.940762 -0.0195,1.513672 -10e-6,0.559901 0.007,1.057947 0.0195,1.494141 0.0195,0.429691 0.0749,0.807295 0.16601,1.132812 0.0912,0.319013 0.23763,0.589195 0.43946,0.810547 0.20181,0.221356 0.48827,0.400393 0.85937,0.53711 0.37109,0.13672 0.83984,0.234376 1.40625,0.292968 0.57291,0.0586 1.27604,0.08789 2.10938,0.08789 0.72915,1e-6 1.34113,-0.02604 1.83593,-0.07813 0.50129,-0.05208 0.91471,-0.126952 1.24024,-0.224609 0.32551,-0.09766 0.57616,-0.218098 0.75195,-0.361329 0.17577,-0.143227 0.30272,-0.305987 0.38086,-0.488281 0.0846,-0.188799 0.13345,-0.393877 0.14648,-0.615234 0.013,-0.227861 0.0195,-0.472002 0.0195,-0.732422 l 1.875,0 c -2e-5,0.683597 -0.0912,1.276044 -0.27344,1.777344 -0.18231,0.501303 -0.50783,0.914714 -0.97656,1.240234 -0.46877,0.319011 -1.10679,0.556641 -1.91407,0.712891 -0.8073,0.15625 -1.83594,0.234375 -3.08593,0.234375 -0.93751,0 -1.75782,-0.03906 -2.46094,-0.117188 -0.70313,-0.07813 -1.31186,-0.205078 -1.82617,-0.380859 -0.50782,-0.182291 -0.931,-0.419921 -1.26954,-0.712891 -0.33203,-0.292967 -0.59896,-0.654295 -0.80078,-1.083984 -0.19531,-0.429685 -0.33203,-0.934242 -0.41015,-1.513672 -0.0781,-0.585933 -0.11719,-1.256506 -0.11719,-2.011719"
       style="font-size:20px;font-variant:normal;font-weight:normal;writing-mode:lr-tb;fill:#000000;fill-opacity:1;fill-rule:nonzero;stroke:none;font-family:Michroma;-inkscape-font-specification:Michroma"
       id="path4251" />
    <path
       d="m 459.29703,19.725464 c 0.72916,5e-6 1.3509,0.01303 1.86523,0.03906 0.51431,0.01954 0.944,0.0586 1.28906,0.117188 0.35156,0.05209 0.62825,0.120447 0.83008,0.205078 0.20181,0.08464 0.35481,0.211593 0.45899,0.380859 0.10415,0.162765 0.16926,0.32878 0.19531,0.498047 0.0325,0.162764 0.0488,0.351566 0.0488,0.566406 -1e-5,0.234379 -0.0163,0.449222 -0.0488,0.644532 -0.026,0.188804 -0.0944,0.36133 -0.20508,0.517578 -0.11069,0.156252 -0.27345,0.289715 -0.48828,0.40039 -0.21486,0.110679 -0.50782,0.20508 -0.87891,0.283204 -0.3711,0.07813 -0.83334,0.13672 -1.38671,0.175781 -0.54689,0.03255 -1.21095,0.04883 -1.99219,0.04883 -0.85938,1e-6 -1.57227,-0.02278 -2.13867,-0.06836 -0.5599,-0.05208 -1.00587,-0.146483 -1.33789,-0.283204 -0.33204,-0.136717 -0.56641,-0.325518 -0.70313,-0.566406 -0.13021,-0.247393 -0.19532,-0.566403 -0.19531,-0.957031 l -1.875,0 c 0,0.59245 0.10416,1.093752 0.3125,1.503906 0.21484,0.410158 0.5664,0.745444 1.05469,1.00586 0.48827,0.253906 1.12955,0.439453 1.92382,0.55664 0.80078,0.117188 1.78711,0.175781 2.95899,0.175781 0.93749,0 1.7578,-0.0293 2.46094,-0.08789 0.70962,-0.05208 1.31834,-0.133464 1.82617,-0.244141 0.5078,-0.117187 0.92772,-0.266926 1.25976,-0.449219 0.33853,-0.188801 0.60546,-0.410155 0.80078,-0.664062 0.1953,-0.260415 0.33202,-0.556639 0.41016,-0.888672 0.0781,-0.338539 0.11717,-0.719398 0.11719,-1.142578 -2e-5,-0.423173 -0.0391,-0.794267 -0.11719,-1.113281 -0.0781,-0.325516 -0.21486,-0.605464 -0.41016,-0.839844 -0.18881,-0.24088 -0.44272,-0.462234 -0.76171,-0.664063 -0.31903,-0.201816 -0.72267,-0.351556 -1.21094,-0.449218 -0.4883,-0.09765 -1.06772,-0.166009 -1.73828,-0.205078 -0.66408,-0.03906 -1.43881,-0.05859 -2.32422,-0.05859 -0.72918,7e-6 -1.35092,7e-6 -1.86524,0 -0.51433,-0.0065 -0.94727,-0.02604 -1.29882,-0.05859 -0.34506,-0.03906 -0.6185,-0.09439 -0.82032,-0.166016 -0.20182,-0.07161 -0.35482,-0.175774 -0.45898,-0.3125 -0.10417,-0.136711 -0.17253,-0.309237 -0.20508,-0.517578 -0.026,-0.214835 -0.0391,-0.432934 -0.0391,-0.654297 -1e-5,-0.377595 0.0846,-0.673819 0.2539,-0.888671 0.16927,-0.214835 0.44922,-0.37434 0.83985,-0.478516 0.39062,-0.104157 0.90494,-0.169261 1.54297,-0.195313 0.63801,-0.02603 1.42577,-0.03905 2.36328,-0.03906 0.85936,10e-6 1.569,0.02605 2.1289,0.07813 0.5664,0.04558 1.01562,0.133473 1.34766,0.263672 0.33202,0.123707 0.56314,0.296233 0.69336,0.517578 0.13671,0.221363 0.20507,0.507821 0.20508,0.859375 l 1.875,0 c -2e-5,-0.566397 -0.0944,-1.054678 -0.28321,-1.464844 -0.18881,-0.410146 -0.52084,-0.748687 -0.99609,-1.015625 -0.46876,-0.273426 -1.10678,-0.475249 -1.91406,-0.605469 -0.80079,-0.130196 -1.81967,-0.1953 -3.05664,-0.195312 -1.25001,1.2e-5 -2.31121,0.05535 -3.1836,0.166016 -0.8724,0.110688 -1.58203,0.292979 -2.1289,0.546875 -0.54688,0.247406 -0.94401,0.572927 -1.19141,0.976562 -0.2474,0.397145 -0.37109,0.888681 -0.37109,1.474609 0,0.429696 0.0391,0.830086 0.11719,1.201172 0.0781,0.364591 0.21158,0.673835 0.40039,0.927735 0.1888,0.247402 0.4427,0.445969 0.76171,0.595703 0.32552,0.149745 0.72917,0.266932 1.21094,0.351562 0.48828,0.07813 1.06771,0.130214 1.73828,0.15625 0.67057,0.02605 1.44856,0.03907 2.33399,0.03906"
       style="font-size:20px;font-variant:normal;font-weight:normal;writing-mode:lr-tb;fill:#000000;fill-opacity:1;fill-rule:nonzero;stroke:none;font-family:Michroma;-inkscape-font-specification:Michroma"
       id="path4253" />
  </g>
  <path
     inkscape:connector-curvature="0"
     style="fill:#ffffff;fill-opacity:1;fill-rule:nonzero;stroke:none"
     id="path3153"
     d="m 353.89036,153.06492 0,24.7312 -15,0 0,-24.7312 15,0 z" />
  <path
     inkscape:connector-curvature="0"
     style="fill:#ffffff;fill-opacity:1;fill-rule:nonzero;stroke:none"
     id="path3155"
     d="m 385.39036,150.06112 0,24.7313 -15,0 0,-24.7313 15,0 z" />
  <path
     inkscape:connector-curvature="0"
     style="fill:#ffffff;fill-opacity:1;fill-rule:nonzero;stroke:none"
     id="path3157"
     d="m 427.39161,150.06112 0,24.7313 -15,0 0,-24.7313 15,0 z" />
  <path
     inkscape:connector-curvature="0"
     style="fill:#ffffff;fill-opacity:1;fill-rule:nonzero;stroke:none"
     id="path3159"
     d="m 474.89161,151.06232 0,24.7313 -15,0 0,-24.7313 15,0 z" />
  <g
     id="g3161"
     transform="matrix(1.25,0,0,1.25,-131.04089,-763.57138)">
    <path
       inkscape:connector-curvature="0"
       style="fill:none;stroke:#003333;stroke-width:3.28485608;stroke-linecap:butt;stroke-linejoin:miter;stroke-miterlimit:4;stroke-opacity:1;stroke-dasharray:none"
       id="path3163"
       d="m 367.051,638.355 0.715,0 0,92.715 -0.715,0 0,-92.715 z" />
  </g>
  <g
     id="g3165"
     transform="matrix(0,1.25,-1.25,0,-131.04089,-763.57138)">
    <path
       inkscape:connector-curvature="0"
       style="fill:none;stroke:#003333;stroke-width:3.35794592;stroke-linecap:butt;stroke-linejoin:miter;stroke-miterlimit:4;stroke-opacity:1;stroke-dasharray:none"
       id="path3167"
       d="m 684.391,-421.328 0.64,0 0,107.84 -0.64,0 0,-107.84 z" />
  </g>
  <g
     id="g3169"
     transform="matrix(1.25,0,0,1.25,-131.04089,-763.57138)">
    <path
       inkscape:connector-curvature="0"
       style="fill:none;stroke:#003333;stroke-width:3.33333302;stroke-linecap:butt;stroke-linejoin:miter;stroke-miterlimit:4;stroke-opacity:1;stroke-dasharray:none"
       id="path3171"
       d="m 385.742,684.711 c 0,10.125 -8.211,18.332 -18.336,18.332 -10.125,0 -18.332,-8.207 -18.332,-18.332 0,-10.125 8.207,-18.332 18.332,-18.332 10.125,0 18.336,8.207 18.336,18.332 z" />
  </g>
  <g
     id="g3173"
     transform="matrix(1.25,0,0,1.25,-131.04089,-763.57138)">
    <path
       inkscape:connector-curvature="0"
       style="fill:#ffffff;fill-opacity:1;fill-rule:nonzero;stroke:#ffffff;stroke-width:3.33487797;stroke-linecap:butt;stroke-linejoin:miter;stroke-miterlimit:4;stroke-opacity:1;stroke-dasharray:none"
       id="path3175"
       d="m 359.074,676.379 16.664,0 0,16.664 -16.664,0 0,-16.664 z" />
  </g>
  <path
     inkscape:connector-curvature="0"
     style="fill:#ffffff;fill-opacity:1;fill-rule:nonzero;stroke:none"
     id="path3053-4"
     d="m 511.59786,8.94871 23.725,0 0,159.11981 -23.725,0 0,-159.11981 z" />
  <path
     inkscape:connector-curvature="0"
     style="fill:#ffffff;fill-opacity:1;fill-rule:nonzero;stroke:none"
     id="path3053-4-8"
     d="m 4.4566101,8.88701 23.7250009,0 0,161.90191 -23.7250009,0 0,-161.90191 z" />
</svg>
